<?xml version="1.0" standalone="no"?>
<!DOCTYPE svg PUBLIC "-//W3C//DTD SVG 20010904//EN"
 "http://www.w3.org/TR/2001/REC-SVG-20010904/DTD/svg10.dtd">
<svg version="1.0" xmlns="http://www.w3.org/2000/svg"
 width="3000.000000pt" height="3000.000000pt" viewBox="0 0 3000.000000 3000.000000"
 preserveAspectRatio="xMidYMid meet">

<g transform="translate(0.000000,3000.000000) scale(0.100000,-0.100000)"
fill="#000000" stroke="none">
<path d="M14689 29206 c-2 -2 -87 -7 -189 -10 -321 -9 -558 -25 -855 -57 -55
-6 -144 -15 -197 -19 -54 -5 -102 -11 -106 -14 -5 -3 -54 -10 -108 -16 -54 -6
-144 -17 -199 -25 -55 -8 -129 -18 -165 -23 -64 -10 -125 -20 -245 -43 -33 -6
-73 -13 -90 -15 -59 -9 -385 -73 -485 -96 -144 -33 -179 -41 -215 -48 -56 -11
-304 -73 -361 -91 -16 -5 -50 -13 -75 -18 -41 -9 -77 -19 -204 -57 -27 -8 -66
-19 -85 -24 -19 -4 -80 -23 -135 -40 -55 -18 -113 -36 -130 -41 -128 -36 -177
-52 -232 -76 -17 -7 -40 -13 -50 -13 -11 0 -23 -3 -26 -6 -6 -7 -148 -58 -202
-74 -16 -4 -55 -18 -85 -30 -30 -12 -65 -24 -78 -27 -12 -3 -25 -9 -28 -14 -3
-5 -15 -9 -28 -9 -12 0 -26 -4 -31 -9 -6 -4 -23 -13 -40 -19 -135 -48 -196
-72 -248 -98 -16 -8 -35 -14 -42 -14 -7 0 -26 -6 -42 -14 -30 -15 -75 -35
-138 -61 -22 -9 -51 -21 -65 -27 -14 -6 -38 -16 -55 -23 -54 -23 -149 -66
-178 -81 -16 -8 -34 -14 -42 -14 -7 0 -18 -7 -25 -15 -7 -8 -19 -15 -26 -15
-22 0 -502 -234 -689 -336 -44 -24 -87 -46 -95 -50 -23 -9 -74 -37 -80 -43 -3
-3 -23 -15 -45 -26 -22 -10 -93 -50 -159 -87 -65 -37 -120 -68 -122 -68 -4 0
-367 -220 -487 -296 -43 -27 -86 -54 -95 -59 -49 -30 -107 -71 -110 -77 -2 -5
-8 -8 -14 -8 -6 0 -27 -12 -47 -27 -20 -16 -44 -32 -53 -38 -27 -15 -155 -104
-235 -162 -40 -29 -75 -53 -77 -53 -6 0 -312 -224 -346 -253 -14 -12 -61 -49
-105 -81 -44 -33 -85 -65 -92 -70 -14 -12 -20 -17 -83 -66 -50 -39 -53 -41
-160 -132 -42 -34 -98 -81 -124 -103 -27 -22 -54 -44 -60 -50 -6 -5 -41 -35
-76 -65 -36 -30 -67 -57 -70 -60 -3 -3 -45 -41 -95 -84 -311 -272 -874 -833
-1135 -1131 -29 -33 -69 -78 -89 -100 -20 -22 -75 -85 -121 -140 -47 -55 -87
-102 -90 -105 -3 -3 -50 -59 -104 -125 -54 -66 -106 -129 -115 -140 -9 -11
-38 -49 -66 -85 -27 -36 -52 -67 -55 -70 -13 -10 -402 -539 -460 -625 -18 -27
-80 -120 -138 -205 -57 -85 -107 -162 -110 -170 -3 -8 -10 -19 -14 -25 -15
-17 -119 -177 -137 -210 -9 -16 -33 -56 -54 -88 -20 -31 -37 -59 -37 -62 0 -2
-12 -21 -26 -42 -14 -21 -30 -47 -35 -58 -5 -11 -23 -42 -39 -70 -17 -27 -35
-59 -40 -70 -6 -11 -19 -33 -29 -50 -24 -37 -38 -62 -161 -290 -152 -281 -370
-719 -370 -743 0 -7 -4 -12 -10 -12 -5 0 -10 -7 -10 -15 0 -8 -14 -43 -31 -77
-18 -35 -38 -76 -45 -93 -7 -16 -22 -51 -33 -77 -12 -27 -30 -69 -42 -95 -11
-27 -26 -61 -34 -78 -7 -16 -27 -66 -45 -110 -17 -44 -36 -91 -42 -105 -5 -14
-16 -38 -23 -55 -7 -16 -20 -50 -30 -75 -10 -25 -24 -59 -31 -77 -8 -17 -14
-36 -14 -42 0 -6 -4 -19 -9 -29 -19 -40 -40 -88 -44 -107 -3 -11 -20 -58 -37
-105 -18 -47 -36 -98 -41 -115 -5 -16 -13 -39 -17 -50 -13 -29 -33 -85 -42
-120 -8 -28 -24 -75 -41 -120 -6 -18 -46 -145 -87 -280 -8 -27 -18 -57 -22
-65 -4 -9 -11 -31 -14 -50 -4 -19 -11 -46 -16 -60 -5 -14 -16 -52 -25 -85 -36
-131 -47 -171 -57 -205 -18 -58 -59 -223 -68 -272 -5 -26 -13 -56 -19 -67 -6
-11 -11 -34 -11 -51 0 -17 -5 -40 -11 -51 -5 -11 -14 -43 -20 -72 -5 -29 -16
-83 -25 -122 -26 -122 -44 -209 -53 -255 -17 -96 -33 -177 -42 -222 -12 -52
-24 -126 -39 -238 -6 -41 -15 -83 -20 -92 -6 -10 -10 -41 -10 -70 0 -29 -7
-80 -15 -113 -8 -33 -15 -80 -15 -105 0 -25 -5 -63 -10 -85 -6 -22 -15 -83
-20 -135 -21 -182 -41 -396 -45 -465 -3 -38 -11 -155 -20 -260 -47 -597 -47
-1378 0 -1980 9 -104 17 -224 20 -265 2 -41 11 -136 19 -210 8 -74 20 -184 25
-244 6 -60 15 -125 21 -145 5 -20 10 -56 10 -81 0 -25 5 -63 11 -85 5 -22 14
-74 19 -115 5 -41 16 -115 25 -165 9 -49 20 -121 26 -160 5 -38 14 -83 19 -99
6 -16 10 -44 10 -62 0 -18 5 -45 11 -61 6 -15 15 -53 20 -83 10 -68 32 -173
54 -265 9 -38 20 -90 24 -115 9 -52 28 -126 47 -189 8 -25 14 -54 14 -66 0
-12 6 -41 14 -66 13 -43 17 -58 51 -184 31 -118 72 -263 86 -305 5 -14 11 -42
15 -63 3 -20 10 -40 15 -43 5 -3 9 -16 9 -29 0 -13 6 -39 14 -57 8 -18 22 -60
31 -93 10 -33 21 -69 26 -80 4 -11 15 -45 24 -75 10 -30 24 -70 31 -88 8 -18
14 -39 14 -46 0 -8 7 -27 15 -42 8 -16 15 -39 15 -51 0 -12 5 -25 10 -28 6 -3
10 -14 10 -23 0 -9 7 -30 15 -46 8 -15 15 -34 15 -42 0 -7 6 -28 14 -46 8 -18
21 -52 30 -75 9 -24 23 -62 32 -85 9 -24 20 -51 25 -60 5 -10 9 -23 9 -29 0
-6 6 -25 14 -42 8 -18 35 -85 61 -150 25 -66 50 -126 55 -135 4 -10 23 -53 41
-97 33 -82 83 -196 100 -227 5 -10 9 -24 9 -32 0 -7 7 -19 15 -26 8 -7 15 -19
15 -28 0 -14 18 -55 106 -238 19 -38 34 -73 34 -77 0 -4 11 -24 23 -45 13 -20
27 -49 31 -65 7 -29 27 -35 44 -14 5 6 15 39 21 72 6 33 18 92 26 130 8 39 20
97 25 129 6 33 14 64 18 70 3 6 10 31 14 56 8 49 27 144 53 260 9 41 20 93 24
115 5 22 13 60 19 85 11 45 35 158 47 215 7 33 27 132 51 240 8 39 19 91 24
117 5 27 11 52 14 57 3 5 10 35 16 68 5 32 16 90 25 128 9 39 20 93 26 122 5
29 14 64 19 78 6 15 10 38 10 52 0 15 6 49 14 77 13 47 28 112 54 241 29 142
45 215 58 262 8 28 14 63 14 78 0 14 4 34 10 44 5 10 14 45 20 77 5 32 17 91
25 129 8 39 19 90 24 115 5 25 13 65 19 90 6 25 18 81 28 125 9 44 20 96 25
115 5 19 14 58 20 85 5 28 17 82 25 120 8 39 18 90 23 115 4 25 13 65 19 90
11 47 36 163 47 215 3 17 13 59 21 95 8 36 19 90 24 121 5 31 14 68 20 83 5
15 10 41 10 57 0 17 4 38 10 48 5 10 14 43 19 72 12 62 33 160 57 269 9 41 20
95 24 120 5 25 13 63 19 85 10 41 26 116 56 260 9 44 21 90 26 103 5 13 9 35
9 49 0 15 6 52 14 82 34 137 39 159 47 206 5 28 16 82 24 120 9 39 20 91 25
116 4 25 13 64 18 85 6 21 18 75 27 119 35 172 49 220 68 237 18 16 76 17 802
18 896 0 821 8 809 -89 -3 -31 -13 -74 -20 -96 -8 -22 -14 -51 -14 -64 0 -14
-6 -50 -14 -80 -14 -55 -39 -166 -51 -226 -3 -16 -13 -61 -21 -100 -8 -38 -19
-93 -24 -122 -6 -29 -15 -64 -20 -78 -6 -15 -10 -40 -10 -56 0 -17 -5 -39 -10
-49 -6 -10 -14 -45 -20 -77 -5 -32 -16 -89 -25 -128 -8 -38 -20 -97 -26 -129
-5 -32 -14 -67 -19 -77 -6 -10 -10 -30 -10 -44 0 -27 -19 -114 -46 -211 -8
-28 -14 -64 -14 -81 0 -16 -3 -33 -7 -37 -5 -4 -13 -38 -20 -74 -7 -37 -17
-94 -23 -126 -6 -32 -15 -67 -20 -77 -6 -10 -10 -36 -10 -58 0 -22 -4 -42 -9
-45 -5 -3 -12 -27 -15 -53 -7 -46 -28 -150 -46 -223 -14 -59 -32 -143 -40
-190 -5 -25 -13 -65 -19 -90 -12 -49 -33 -142 -50 -230 -6 -30 -16 -75 -22
-100 -6 -25 -14 -65 -18 -90 -5 -25 -13 -65 -19 -90 -6 -25 -18 -81 -28 -125
-9 -44 -20 -96 -25 -115 -11 -40 -27 -115 -38 -180 -5 -25 -14 -67 -20 -95
-29 -118 -34 -142 -42 -185 -4 -25 -15 -79 -24 -120 -28 -126 -29 -159 -10
-181 17 -18 35 -19 469 -19 432 0 452 1 484 20 19 12 32 28 32 41 0 11 5 29
10 39 6 10 14 45 20 77 5 32 16 90 25 128 9 39 20 96 26 128 5 32 13 67 19 77
5 10 10 32 10 49 0 16 4 41 10 55 5 15 14 52 20 84 5 31 17 89 26 127 32 139
45 201 54 258 6 32 14 67 20 77 5 10 10 30 10 44 0 15 6 52 14 84 8 31 22 93
31 137 9 44 21 96 25 115 25 103 32 140 39 192 5 31 12 61 16 68 4 6 11 35 15
63 5 29 16 84 25 122 22 95 44 201 54 255 4 25 13 65 19 90 6 25 18 81 27 125
9 44 20 94 25 110 8 27 17 69 40 190 4 22 12 60 18 85 16 66 40 181 46 215 3
17 12 62 21 100 9 39 20 91 25 118 5 26 13 62 19 80 9 30 22 92 42 197 4 25
15 74 23 110 8 36 19 90 25 120 6 30 15 73 20 95 5 22 17 76 26 120 30 140 37
164 57 187 l19 22 792 -3 c587 -2 794 -6 799 -14 12 -19 9 -74 -8 -145 -8 -37
-20 -87 -26 -112 -6 -25 -14 -63 -18 -85 -10 -49 -37 -177 -56 -265 -8 -36
-19 -88 -24 -117 -4 -28 -11 -57 -15 -63 -4 -6 -11 -35 -15 -63 -5 -29 -16
-83 -25 -122 -26 -114 -45 -206 -55 -268 -6 -33 -13 -64 -17 -70 -4 -7 -11
-32 -15 -57 -7 -44 -21 -109 -53 -255 -8 -38 -19 -90 -24 -115 -28 -138 -34
-169 -46 -215 -12 -45 -28 -119 -57 -260 -26 -129 -41 -194 -54 -241 -8 -28
-14 -62 -14 -77 0 -14 -5 -38 -11 -54 -6 -15 -15 -50 -20 -78 -4 -27 -16 -84
-24 -125 -9 -41 -20 -93 -24 -115 -5 -22 -13 -60 -19 -85 -11 -48 -30 -133
-57 -265 -9 -44 -21 -90 -26 -103 -5 -13 -9 -35 -9 -49 0 -15 -6 -52 -14 -82
-19 -76 -44 -190 -50 -226 -2 -16 -9 -48 -14 -70 -10 -40 -33 -146 -53 -240
-6 -27 -15 -70 -21 -95 -6 -25 -14 -65 -19 -90 -4 -25 -12 -63 -17 -85 -6 -22
-18 -76 -27 -120 -9 -44 -20 -96 -25 -115 -14 -56 -32 -142 -40 -190 -5 -25
-13 -63 -18 -85 -10 -36 -25 -110 -54 -250 -5 -27 -16 -75 -23 -105 -19 -78
-36 -158 -45 -210 -5 -25 -13 -63 -18 -85 -6 -22 -16 -67 -22 -100 -7 -33 -19
-89 -27 -125 -7 -36 -21 -96 -29 -135 -8 -38 -20 -90 -26 -115 -6 -25 -14 -65
-18 -90 -4 -25 -15 -76 -25 -115 -21 -89 -43 -196 -54 -262 -5 -28 -12 -57
-16 -63 -4 -6 -11 -35 -16 -63 -8 -52 -24 -129 -53 -262 -9 -38 -20 -94 -25
-123 -6 -29 -12 -56 -15 -60 -3 -5 -10 -35 -16 -68 -5 -32 -17 -88 -25 -124
-28 -119 -46 -204 -54 -255 -5 -27 -13 -68 -19 -90 -10 -39 -35 -151 -47 -210
-8 -38 -31 -150 -51 -240 -8 -38 -19 -90 -24 -115 -5 -25 -14 -70 -20 -100 -6
-30 -16 -70 -21 -87 -6 -18 -14 -54 -19 -80 -5 -27 -16 -79 -25 -118 -9 -38
-20 -96 -25 -128 -6 -33 -13 -63 -16 -69 -3 -5 -10 -33 -14 -61 -5 -29 -13
-72 -19 -97 -7 -25 -16 -65 -21 -90 -5 -25 -16 -74 -23 -110 -8 -36 -22 -101
-31 -145 -9 -44 -22 -98 -27 -120 -6 -22 -14 -62 -19 -90 -4 -27 -10 -57 -13
-65 -3 -8 -13 -51 -22 -95 -24 -114 -42 -200 -60 -277 -8 -37 -15 -78 -15 -92
0 -14 -14 -40 -35 -62 l-35 -37 -424 7 c-328 6 -426 5 -431 -5 -10 -15 334
-354 580 -574 50 -44 92 -82 95 -85 7 -7 164 -144 231 -201 30 -25 82 -68 115
-95 34 -27 83 -68 110 -92 27 -23 54 -45 59 -50 47 -35 101 -78 105 -82 3 -4
43 -35 90 -70 47 -35 87 -67 90 -71 5 -6 370 -274 435 -319 17 -11 58 -41 93
-65 34 -25 64 -45 67 -45 3 0 39 -25 80 -55 40 -30 76 -55 79 -55 2 0 40 -24
83 -53 44 -30 86 -57 94 -61 8 -3 48 -29 89 -56 41 -27 91 -59 110 -70 19 -11
49 -29 65 -40 17 -11 38 -23 48 -26 9 -4 17 -10 17 -15 0 -5 5 -9 11 -9 6 0
31 -13 56 -30 24 -16 46 -30 48 -30 2 0 45 -25 95 -55 50 -30 93 -55 95 -55 4
0 120 -68 155 -90 8 -6 22 -13 30 -16 8 -3 22 -9 30 -14 8 -5 46 -25 84 -46
38 -20 83 -45 100 -55 17 -10 38 -21 46 -25 8 -3 22 -9 30 -14 8 -5 107 -54
220 -110 113 -56 212 -106 220 -111 8 -5 22 -12 30 -15 8 -4 49 -22 90 -41 41
-19 93 -43 115 -53 126 -58 182 -83 200 -90 11 -4 45 -19 76 -33 30 -14 80
-35 110 -47 30 -11 65 -25 79 -31 14 -6 40 -17 58 -25 18 -7 47 -20 65 -28 17
-7 82 -32 142 -55 189 -72 258 -98 290 -112 11 -4 52 -18 90 -30 39 -12 74
-26 80 -31 5 -4 17 -8 26 -8 9 0 30 -7 45 -15 16 -8 38 -15 49 -15 12 0 25 -4
30 -8 6 -5 57 -24 115 -41 58 -18 137 -43 175 -56 39 -13 104 -33 145 -45 41
-11 83 -25 92 -31 10 -5 26 -9 35 -9 16 0 65 -14 148 -42 17 -5 46 -14 65 -18
19 -5 62 -16 95 -25 76 -20 173 -44 205 -51 14 -3 48 -11 75 -19 135 -37 165
-45 275 -64 25 -4 63 -13 85 -19 38 -10 88 -21 273 -58 122 -24 161 -31 262
-49 52 -9 120 -20 150 -26 30 -6 87 -14 125 -19 39 -5 77 -11 85 -14 8 -3 53
-10 100 -16 47 -5 137 -17 200 -25 63 -9 156 -19 206 -24 49 -5 130 -14 180
-20 144 -17 421 -41 534 -46 58 -2 197 -9 310 -14 260 -12 935 -12 1190 0 107
5 269 13 360 18 155 7 274 18 485 42 50 6 131 15 180 20 104 10 274 32 425 54
58 8 138 20 178 25 40 5 77 12 82 15 5 3 39 10 77 15 37 5 104 16 148 24 44 8
109 19 145 25 62 11 87 16 225 46 33 8 96 21 140 30 44 9 96 21 115 25 19 5
67 16 105 25 39 9 96 23 128 30 120 31 184 47 237 61 30 8 71 19 90 24 51 13
148 40 200 55 25 8 72 21 105 31 33 9 69 20 80 24 11 4 47 15 80 25 33 9 75
23 93 31 18 8 43 14 55 14 13 0 27 4 32 8 6 5 42 19 80 31 39 12 79 26 90 30
11 4 45 16 75 25 30 9 71 23 90 31 19 7 69 25 110 40 41 15 91 32 110 40 19 7
53 19 75 28 61 23 127 48 160 62 17 7 51 20 77 29 26 9 56 20 65 25 10 5 38
17 63 26 25 10 59 23 75 31 17 7 50 21 75 32 25 11 73 31 107 46 58 24 86 36
233 103 30 14 75 34 100 45 56 26 592 291 640 317 19 11 42 22 50 25 8 4 29
15 46 25 17 10 60 35 95 54 87 47 158 87 194 109 17 10 37 21 45 25 8 4 55 31
103 60 48 29 90 53 92 53 4 0 220 131 283 172 15 10 34 21 42 25 8 3 17 9 20
13 3 3 32 23 65 43 99 62 270 175 440 292 176 121 588 428 745 554 19 16 62
50 95 76 33 27 76 62 96 79 19 17 46 40 60 51 59 48 295 250 304 259 6 6 48
45 95 86 47 41 97 86 111 100 14 14 119 113 233 220 114 107 298 291 409 409
111 118 207 219 213 225 26 27 290 326 323 366 20 24 43 51 51 60 40 41 262
316 385 475 33 42 84 107 113 144 29 36 68 89 88 116 19 28 54 77 78 110 72
97 208 293 316 455 86 129 163 247 236 363 27 43 57 91 66 105 10 15 21 34 25
42 3 8 31 56 60 105 73 120 67 111 112 190 95 165 123 216 217 390 46 85 278
550 337 675 58 123 107 231 107 236 0 2 13 32 29 67 56 120 81 178 81 186 0 5
6 22 14 38 17 34 24 51 71 168 20 50 40 99 44 110 5 11 15 38 24 60 38 101 50
131 58 147 5 10 9 23 9 29 0 6 6 25 14 42 8 18 16 41 19 52 3 11 15 45 27 75
12 30 31 84 42 120 11 36 24 69 29 75 5 5 9 17 9 27 0 9 6 32 14 50 8 18 22
60 31 93 10 33 21 69 25 80 11 29 34 101 55 170 22 75 40 136 60 198 8 26 15
56 15 67 0 10 5 22 10 25 6 3 10 16 10 28 0 12 6 42 14 67 17 53 38 131 61
220 9 36 21 81 26 100 12 46 28 115 39 165 9 41 23 99 41 169 6 21 14 60 19
85 4 25 22 116 40 201 18 85 36 178 40 205 4 28 13 70 18 95 6 25 18 92 27
150 8 58 20 130 25 160 17 105 66 464 75 550 3 30 7 71 10 90 3 19 9 82 14
140 5 58 14 150 20 205 62 619 71 1598 21 2190 -5 61 -12 157 -16 215 -3 58
-8 108 -10 111 -2 3 -8 64 -14 135 -5 71 -12 140 -15 154 -3 14 -10 71 -15
126 -5 56 -12 112 -15 125 -3 13 -9 60 -15 104 -12 104 -28 216 -40 285 -5 30
-16 98 -25 150 -9 52 -22 129 -30 170 -8 41 -26 136 -40 210 -14 74 -32 167
-41 205 -9 39 -22 99 -30 135 -8 36 -21 92 -29 125 -8 33 -21 92 -30 130 -8
39 -18 79 -21 90 -3 11 -9 36 -14 55 -4 19 -18 71 -30 115 -12 44 -26 96 -31
115 -7 33 -19 72 -55 195 -8 28 -19 66 -24 85 -4 19 -13 49 -19 65 -6 17 -29
91 -52 165 -52 168 -118 370 -140 425 -4 11 -17 47 -28 80 -11 33 -30 85 -41
115 -12 30 -24 64 -27 75 -3 11 -12 36 -20 55 -8 19 -18 44 -23 55 -4 11 -22
58 -40 105 -43 115 -169 421 -225 545 -15 33 -34 76 -42 95 -9 19 -22 47 -30
62 -7 14 -13 33 -13 42 0 9 -4 16 -10 16 -5 0 -10 6 -10 13 -1 25 -76 162 -90
164 -9 2 -33 -26 -60 -69 -83 -133 -162 -231 -279 -348 -64 -63 -127 -124
-141 -135 -57 -46 -149 -115 -153 -115 -2 0 -35 -20 -72 -45 -84 -55 -233
-128 -390 -193 -28 -11 -56 -30 -63 -44 -13 -24 -9 -117 9 -213 5 -27 13 -90
19 -140 5 -49 17 -139 25 -200 8 -60 19 -148 25 -195 6 -47 15 -107 20 -133 6
-26 10 -67 10 -90 0 -23 4 -58 10 -77 5 -19 14 -75 19 -125 6 -49 18 -142 26
-205 9 -63 20 -151 26 -195 5 -44 12 -96 15 -115 3 -19 8 -53 10 -75 2 -22 11
-88 19 -147 25 -183 44 -319 55 -413 6 -49 18 -133 25 -185 8 -52 21 -151 30
-220 8 -69 22 -172 30 -230 8 -58 17 -125 20 -150 3 -25 13 -94 21 -155 8 -60
19 -146 24 -190 5 -44 14 -109 19 -145 6 -36 17 -121 26 -190 9 -69 23 -174
31 -235 14 -106 19 -140 45 -325 19 -134 22 -219 9 -235 -11 -13 -132 -15
-869 -15 l-857 0 -32 29 c-32 30 -32 31 -32 123 0 51 -7 208 -15 348 -8 140
-20 356 -25 480 -6 124 -15 299 -21 390 -5 91 -14 282 -19 425 -6 143 -15 315
-20 383 -6 67 -10 164 -10 215 0 50 -6 202 -15 337 -8 135 -22 380 -30 545 -8
165 -20 386 -25 490 -5 105 -12 257 -16 339 -6 152 -15 186 -51 200 -25 10
-61 -21 -72 -61 -11 -44 -32 -135 -56 -248 -9 -44 -23 -107 -30 -140 -8 -33
-21 -96 -30 -140 -30 -145 -37 -179 -51 -232 -8 -28 -14 -61 -14 -74 0 -12 -7
-45 -14 -73 -8 -28 -22 -87 -31 -131 -9 -44 -20 -96 -25 -115 -4 -19 -16 -71
-25 -115 -9 -44 -23 -107 -30 -140 -7 -33 -21 -96 -30 -140 -34 -163 -46 -221
-55 -255 -13 -55 -32 -141 -41 -190 -7 -42 -19 -94 -55 -260 -8 -36 -19 -85
-24 -110 -5 -25 -19 -88 -31 -140 -12 -52 -25 -115 -30 -140 -7 -42 -22 -108
-55 -260 -8 -36 -19 -88 -24 -117 -4 -28 -11 -57 -15 -62 -3 -6 -10 -34 -15
-63 -5 -29 -16 -84 -25 -123 -9 -38 -22 -101 -30 -140 -8 -38 -22 -101 -31
-140 -9 -38 -20 -90 -25 -115 -4 -25 -15 -74 -23 -110 -29 -131 -47 -216 -57
-267 -5 -29 -14 -64 -19 -78 -6 -15 -10 -36 -10 -49 0 -12 -10 -32 -23 -44
l-23 -22 -788 0 -789 0 -19 22 c-10 12 -16 29 -12 37 3 9 12 50 20 91 7 41 21
107 30 145 9 39 18 81 21 95 2 14 10 52 18 85 7 33 21 96 30 140 9 44 21 96
25 115 5 19 16 71 25 115 24 114 45 214 57 259 5 21 13 60 18 85 5 25 23 111
40 191 18 80 35 165 39 190 4 25 13 63 19 85 6 22 18 76 27 120 9 44 21 96 26
115 4 19 11 53 14 75 3 22 10 54 15 70 10 35 29 121 41 185 8 43 23 113 55
260 8 36 19 85 23 110 8 43 13 67 42 185 6 28 15 70 20 95 7 44 22 112 54 255
9 39 20 94 25 123 5 29 11 56 14 61 3 4 10 32 15 62 11 59 31 154 55 264 9 39
20 94 25 123 6 29 13 57 16 62 3 5 10 33 15 62 5 29 16 85 25 123 8 39 20 95
25 125 6 30 14 71 19 90 5 19 17 71 26 115 9 44 23 107 30 140 8 33 21 96 30
140 9 44 20 98 25 120 11 50 37 171 55 250 7 33 21 96 30 140 9 44 20 96 25
115 5 19 16 71 25 115 9 44 21 100 27 125 6 25 14 65 19 90 8 45 22 112 39
180 5 19 16 71 25 115 34 164 68 324 90 416 8 36 15 75 15 87 0 11 4 31 9 44
5 13 16 59 25 103 22 106 45 210 58 265 6 25 14 65 19 90 5 25 16 77 24 115 9
39 20 90 24 115 5 25 13 65 19 90 6 25 18 79 27 120 9 41 20 93 25 115 5 22
16 76 25 120 9 44 21 98 27 120 5 22 14 60 18 85 5 25 13 68 19 95 6 28 18 84
27 125 9 41 20 91 24 110 4 19 16 71 25 115 32 152 47 220 57 259 5 21 14 60
18 85 5 25 16 80 25 121 9 41 20 99 26 129 5 30 12 58 15 63 3 5 10 33 14 61
5 29 13 70 18 92 10 40 34 147 53 240 6 28 15 70 21 95 6 25 14 65 19 90 4 25
12 63 17 85 6 22 18 76 27 120 9 44 20 96 25 116 15 55 12 97 -8 117 -26 26
-255 230 -320 285 -31 27 -70 60 -87 74 -16 14 -68 58 -115 97 -47 39 -90 75
-96 81 -18 17 -230 184 -418 330 -71 55 -324 240 -376 275 -12 8 -28 20 -34
25 -6 6 -45 33 -86 60 -41 28 -79 54 -85 58 -12 10 -190 128 -213 142 -9 6
-33 22 -53 38 -20 15 -40 27 -44 27 -3 0 -21 11 -38 24 -18 13 -48 32 -67 42
-19 11 -49 28 -65 40 -17 12 -106 67 -200 123 -93 56 -177 106 -185 111 -8 6
-22 13 -30 17 -8 4 -31 16 -50 28 -62 39 -256 146 -445 246 -84 44 -433 218
-535 267 -78 37 -108 50 -242 111 -26 11 -52 21 -57 21 -6 0 -11 5 -11 10 0 6
-7 10 -16 10 -9 0 -28 6 -42 13 -32 16 -105 49 -187 82 -63 26 -108 46 -138
61 -16 8 -35 14 -42 14 -7 0 -26 6 -42 14 -15 8 -46 22 -68 31 -22 9 -48 20
-57 25 -10 6 -24 10 -32 10 -7 0 -27 7 -42 15 -16 8 -37 15 -46 15 -9 0 -19 4
-23 9 -3 5 -20 13 -37 17 -18 3 -39 10 -48 14 -8 4 -35 16 -60 25 -25 9 -60
23 -78 31 -18 8 -41 14 -52 14 -10 0 -21 4 -25 9 -3 5 -20 13 -37 17 -18 3
-39 10 -48 14 -8 5 -60 22 -115 40 -55 17 -116 37 -135 45 -19 7 -62 21 -95
30 -33 9 -91 27 -130 40 -38 12 -99 30 -135 40 -36 10 -83 23 -105 30 -36 12
-102 31 -195 55 -19 5 -53 15 -75 21 -22 6 -56 14 -75 19 -19 4 -69 16 -110
27 -69 19 -115 30 -290 69 -36 8 -82 19 -103 25 -22 6 -62 14 -90 19 -29 5
-86 16 -127 25 -97 21 -222 45 -285 55 -27 4 -77 13 -110 19 -116 22 -181 33
-245 43 -36 5 -110 15 -165 24 -55 8 -138 18 -185 24 -47 5 -109 14 -139 20
-29 5 -75 10 -102 10 -26 0 -70 5 -97 10 -51 12 -182 22 -477 40 -99 6 -209
14 -245 19 -36 5 -305 9 -598 10 -293 1 -538 4 -545 7 -7 2 -15 3 -18 0z
m-6334 -3427 c33 -6 92 -15 130 -19 39 -5 102 -16 140 -25 39 -8 93 -20 120
-26 28 -6 55 -14 60 -19 6 -4 21 -10 35 -13 81 -18 268 -108 380 -182 89 -60
218 -186 282 -276 155 -217 248 -546 248 -879 0 -100 -17 -305 -35 -410 -8
-47 -16 -101 -19 -120 -4 -35 -22 -123 -51 -255 -8 -38 -19 -93 -24 -122 -5
-28 -14 -68 -19 -90 -12 -44 -34 -144 -57 -258 -9 -44 -20 -96 -25 -115 -4
-19 -15 -71 -24 -115 -10 -44 -22 -100 -28 -125 -6 -25 -14 -65 -19 -90 -4
-25 -15 -76 -24 -115 -8 -38 -20 -95 -26 -125 -16 -88 -38 -144 -59 -158 -16
-9 -189 -11 -810 -5 -727 6 -790 8 -795 23 -6 19 8 113 30 210 9 36 20 92 26
124 5 32 14 67 19 77 6 10 10 29 10 43 0 15 6 52 14 84 8 31 22 93 31 137 9
44 20 96 25 115 5 19 16 71 25 115 9 44 21 98 27 120 5 22 14 63 18 90 5 28
15 79 24 115 8 36 22 99 31 140 10 41 20 127 22 191 5 119 -3 161 -41 234 -20
38 -85 105 -101 105 -7 0 -18 7 -25 15 -7 8 -22 15 -34 15 -12 0 -28 6 -34 13
-9 8 -56 12 -160 12 -145 0 -202 -9 -265 -41 -16 -8 -33 -14 -39 -14 -5 0 -36
-20 -68 -45 -127 -98 -215 -260 -261 -480 -4 -22 -15 -69 -23 -105 -36 -164
-48 -218 -55 -260 -4 -25 -13 -63 -18 -85 -14 -50 -32 -132 -78 -360 -9 -44
-22 -102 -30 -130 -12 -48 -27 -115 -46 -215 -4 -25 -15 -76 -24 -115 -25
-108 -45 -205 -54 -262 -5 -28 -12 -56 -15 -61 -3 -5 -10 -33 -15 -63 -11 -59
-31 -155 -55 -264 -9 -38 -21 -97 -26 -129 -6 -32 -15 -67 -20 -77 -6 -10 -10
-30 -10 -44 0 -15 -6 -50 -14 -78 -8 -29 -21 -88 -31 -132 -9 -44 -20 -98 -25
-120 -5 -22 -16 -76 -25 -120 -9 -44 -21 -98 -27 -120 -6 -22 -15 -60 -19 -85
-4 -25 -15 -76 -24 -115 -8 -38 -20 -97 -26 -129 -5 -32 -14 -67 -19 -77 -6
-10 -10 -29 -10 -43 0 -15 -6 -52 -14 -84 -8 -31 -22 -93 -31 -137 -9 -44 -21
-96 -25 -115 -5 -19 -16 -71 -25 -115 -9 -44 -23 -107 -30 -140 -7 -33 -21
-96 -30 -140 -10 -44 -24 -109 -32 -145 -7 -36 -18 -85 -23 -110 -5 -25 -14
-65 -21 -90 -6 -25 -14 -65 -19 -90 -9 -54 -28 -140 -41 -193 -6 -22 -14 -62
-19 -90 -5 -29 -17 -83 -26 -122 -9 -38 -20 -90 -24 -115 -5 -25 -13 -63 -19
-85 -5 -22 -17 -76 -27 -120 -9 -44 -20 -96 -24 -115 -4 -19 -16 -71 -25 -115
-9 -44 -21 -98 -27 -120 -5 -22 -13 -60 -17 -85 -5 -25 -13 -65 -19 -90 -6
-25 -18 -81 -27 -125 -9 -44 -20 -96 -25 -115 -27 -112 -41 -185 -49 -265 -24
-220 48 -365 210 -425 54 -21 72 -22 216 -18 185 6 229 19 342 102 91 68 185
205 215 316 4 14 11 34 15 45 12 29 33 113 41 165 4 25 12 65 19 90 18 72 70
319 91 431 5 25 13 64 18 85 6 21 18 75 27 119 18 83 22 102 49 220 9 39 16
80 16 93 0 13 5 32 10 42 6 10 14 45 19 77 5 32 15 79 21 104 21 88 -52 81
837 80 777 -1 788 -1 805 -21 12 -15 14 -28 8 -52 -12 -47 -30 -126 -40 -178
-5 -25 -16 -76 -25 -115 -8 -38 -22 -101 -30 -140 -8 -38 -21 -104 -31 -145
-16 -73 -19 -92 -44 -215 -7 -33 -18 -82 -26 -109 -8 -26 -14 -63 -14 -82 0
-18 -4 -36 -10 -39 -5 -3 -10 -15 -10 -27 0 -11 -7 -52 -16 -92 -8 -39 -22
-105 -31 -146 -8 -41 -21 -97 -29 -124 -8 -26 -14 -57 -14 -67 0 -11 -4 -27
-9 -37 -5 -9 -21 -60 -35 -112 -41 -144 -42 -149 -76 -240 -28 -77 -40 -105
-85 -205 -43 -95 -124 -251 -155 -300 -11 -16 -23 -37 -27 -45 -4 -8 -11 -19
-15 -25 -4 -5 -41 -55 -82 -110 -119 -161 -244 -292 -401 -421 -65 -53 -193
-140 -235 -160 -8 -4 -17 -10 -20 -13 -3 -3 -25 -16 -50 -29 -25 -12 -52 -27
-60 -32 -33 -20 -151 -70 -164 -70 -8 0 -17 -4 -20 -9 -3 -5 -16 -11 -28 -14
-13 -3 -48 -15 -78 -27 -30 -12 -71 -26 -90 -30 -19 -5 -62 -16 -95 -25 -74
-21 -180 -45 -220 -51 -16 -2 -73 -11 -125 -19 -308 -46 -702 -46 -1000 1
-113 17 -236 43 -268 55 -13 5 -31 9 -40 9 -9 0 -30 7 -46 15 -15 8 -36 15
-46 15 -10 0 -31 6 -47 14 -15 7 -44 20 -63 28 -69 30 -115 53 -118 61 -2 4
-9 7 -15 7 -32 0 -228 147 -292 219 -16 19 -40 46 -53 60 -73 83 -170 265
-215 401 -97 298 -98 733 -2 1190 7 36 21 101 30 145 9 44 19 89 21 100 3 11
12 52 19 90 8 39 22 102 31 140 9 39 19 90 23 115 4 25 10 50 14 57 4 6 11 37
16 70 6 32 17 90 26 128 20 90 43 198 54 255 5 25 14 65 20 90 12 49 33 142
50 230 6 30 16 75 22 100 6 25 14 68 19 97 4 28 11 57 15 63 4 6 11 35 15 63
5 29 16 81 24 117 19 88 46 216 56 265 7 37 13 62 41 183 7 26 15 67 20 92 12
66 35 175 54 255 10 39 21 93 25 120 5 28 13 70 19 95 12 46 35 152 46 205 3
17 13 59 21 95 8 36 19 91 24 123 6 33 13 63 16 68 3 5 9 30 14 57 20 99 39
190 55 262 10 41 21 95 26 120 16 86 31 155 45 204 8 26 14 57 14 68 0 11 6
43 14 71 8 29 19 79 26 112 19 97 40 196 55 260 7 33 21 96 30 140 9 44 21 94
25 110 5 17 12 54 16 83 4 29 11 55 15 58 5 3 9 20 9 37 0 18 5 48 11 67 5 19
14 58 19 85 5 28 13 68 18 90 6 22 18 76 27 120 9 44 21 96 25 115 4 19 16 71
25 115 9 44 23 107 30 140 8 33 21 96 30 140 16 80 20 97 50 235 47 214 135
509 170 572 8 14 15 33 15 41 0 9 6 28 14 44 18 34 83 174 96 205 5 13 23 46
40 73 16 28 34 60 40 73 11 25 127 196 174 257 99 127 201 235 296 313 25 20
55 46 67 57 11 11 47 38 80 60 32 22 60 42 63 46 3 3 12 9 20 12 8 4 29 16 45
26 32 21 92 55 137 78 15 8 30 18 33 24 4 5 13 9 21 9 12 0 105 40 166 71 10
5 23 9 29 9 6 0 25 6 42 14 18 8 43 16 57 19 14 3 39 10 55 15 30 11 101 31
180 51 112 29 354 63 510 72 165 9 561 1 640 -12z m4595 1 c52 -5 129 -12 170
-15 41 -3 98 -10 125 -16 28 -5 73 -13 100 -19 88 -16 148 -30 184 -42 274
-87 446 -184 599 -336 92 -90 148 -160 196 -247 34 -60 116 -261 116 -283 0
-8 6 -38 14 -66 60 -210 62 -658 4 -920 -6 -26 -14 -74 -19 -105 -4 -31 -15
-87 -24 -126 -18 -80 -42 -198 -55 -267 -5 -27 -12 -53 -15 -59 -4 -5 -11 -34
-15 -62 -9 -52 -23 -119 -55 -257 -9 -41 -21 -98 -25 -127 -4 -28 -11 -57 -15
-63 -4 -6 -11 -35 -15 -63 -5 -29 -16 -83 -25 -122 -9 -38 -21 -100 -28 -137
-7 -37 -16 -70 -20 -74 -4 -4 -7 -21 -7 -37 0 -16 -6 -52 -14 -80 -16 -63 -59
-256 -86 -392 -6 -33 -17 -87 -25 -120 -7 -33 -20 -96 -30 -140 -9 -44 -20
-93 -25 -110 -5 -16 -12 -48 -15 -70 -3 -22 -10 -56 -15 -75 -5 -19 -16 -71
-25 -115 -9 -44 -23 -107 -30 -140 -7 -33 -21 -96 -30 -140 -9 -44 -20 -93
-25 -110 -5 -16 -14 -55 -19 -85 -6 -30 -18 -86 -26 -125 -9 -38 -20 -90 -24
-115 -5 -25 -16 -76 -25 -115 -9 -38 -23 -101 -31 -140 -8 -38 -21 -101 -30
-140 -8 -38 -19 -94 -24 -123 -6 -29 -13 -57 -16 -63 -4 -5 -11 -34 -15 -62
-4 -29 -16 -86 -25 -127 -34 -150 -68 -308 -85 -404 -6 -33 -13 -63 -16 -68
-3 -4 -9 -29 -14 -56 -12 -59 -34 -164 -56 -262 -9 -41 -20 -95 -24 -120 -5
-25 -13 -65 -19 -90 -7 -25 -18 -76 -27 -115 -8 -38 -19 -88 -24 -110 -5 -22
-16 -76 -25 -120 -30 -146 -46 -219 -61 -271 -8 -28 -14 -62 -14 -76 0 -14 -4
-38 -9 -54 -5 -16 -17 -65 -26 -109 -9 -44 -22 -107 -30 -140 -7 -33 -21 -96
-30 -140 -10 -44 -24 -100 -31 -124 -8 -25 -14 -54 -14 -66 0 -12 -3 -25 -7
-29 -5 -4 -13 -29 -20 -54 -23 -93 -34 -128 -71 -227 -15 -41 -18 -50 -47
-120 -69 -169 -161 -345 -243 -469 -28 -43 -52 -82 -52 -87 0 -4 -4 -9 -8 -11
-4 -1 -30 -32 -57 -68 -70 -92 -280 -304 -376 -378 -133 -104 -354 -232 -509
-294 -14 -6 -38 -16 -55 -23 -35 -15 -96 -35 -180 -60 -33 -10 -71 -22 -85
-26 -30 -11 -106 -27 -175 -39 -27 -4 -77 -13 -110 -19 -241 -43 -723 -57
-929 -26 -55 8 -113 15 -130 15 -31 0 -110 16 -246 52 -41 11 -93 24 -115 29
-22 6 -44 14 -50 20 -5 5 -17 9 -26 9 -10 0 -30 6 -46 14 -15 8 -67 34 -115
56 -147 70 -302 194 -413 330 -56 69 -156 252 -170 313 -4 15 -11 30 -16 33
-5 3 -9 14 -9 26 0 11 -6 41 -14 67 -42 134 -62 294 -60 486 2 159 20 393 34
430 5 14 10 42 10 62 0 19 7 62 15 96 8 34 21 98 30 142 9 44 20 94 25 110 5
17 11 50 15 75 4 25 10 59 15 75 5 17 16 66 25 110 10 44 23 107 30 140 8 33
21 96 30 140 9 44 20 96 25 115 18 75 32 137 40 185 4 28 13 68 18 90 6 22 18
76 27 120 32 152 46 220 55 255 13 55 32 141 41 190 8 46 25 121 53 245 9 39
21 96 26 127 6 32 15 69 20 84 6 14 10 37 10 51 0 15 7 49 14 77 8 28 22 87
31 131 9 44 20 96 25 115 5 19 16 73 25 120 9 47 23 108 31 136 8 28 14 63 14
78 0 15 4 35 10 45 5 10 14 45 19 77 6 32 18 91 26 129 9 39 20 93 25 122 4
28 11 57 15 63 4 6 11 35 15 63 5 29 16 81 24 117 26 117 48 224 57 279 6 30
13 59 16 65 4 6 11 31 15 56 7 46 25 131 53 255 21 95 44 201 54 255 5 25 18
88 30 140 12 52 26 115 31 140 5 25 16 77 24 115 9 39 21 97 26 129 6 32 15
67 20 77 6 10 10 31 10 48 0 16 5 42 11 58 6 15 15 53 20 83 5 30 16 84 24
120 17 69 41 183 55 262 5 27 12 53 15 59 4 5 11 34 15 62 10 57 30 153 55
262 9 39 20 90 24 115 11 58 29 133 47 190 8 25 14 54 14 66 0 11 4 24 8 30 5
5 17 38 26 74 18 65 36 117 62 178 8 18 14 37 14 42 0 5 12 35 26 67 14 32 31
72 39 88 184 415 469 768 802 991 48 32 97 64 108 70 66 36 162 88 175 94 8 4
31 14 50 22 19 9 51 23 72 32 20 9 43 16 51 16 9 0 19 5 22 10 3 6 13 10 22
10 8 0 29 6 46 13 44 19 201 64 272 78 145 29 280 48 410 59 83 6 157 13 165
15 35 7 313 4 400 -5z m5050 -170 c139 -12 278 -34 356 -56 28 -8 60 -14 70
-14 11 0 24 -4 30 -8 5 -5 43 -19 84 -32 103 -33 308 -135 340 -170 3 -3 23
-18 45 -35 59 -43 143 -131 203 -210 53 -71 142 -240 142 -269 0 -9 4 -16 8
-16 5 0 13 -19 19 -42 6 -24 20 -79 31 -123 62 -248 65 -593 7 -935 -8 -47
-17 -98 -19 -115 -6 -32 -31 -156 -39 -190 -3 -11 -13 -58 -22 -105 -9 -47
-21 -103 -27 -125 -6 -22 -15 -60 -19 -85 -4 -25 -15 -74 -23 -110 -24 -106
-47 -212 -56 -260 -5 -25 -16 -76 -25 -115 -9 -38 -22 -101 -30 -140 -8 -38
-22 -101 -30 -140 -9 -38 -20 -90 -24 -115 -11 -60 -30 -146 -43 -195 -6 -22
-15 -60 -19 -85 -5 -25 -15 -79 -24 -120 -9 -41 -20 -96 -25 -121 -4 -25 -13
-64 -19 -85 -5 -21 -17 -75 -26 -119 -9 -44 -23 -103 -31 -131 -7 -28 -14 -62
-14 -76 0 -14 -4 -38 -9 -54 -5 -16 -17 -65 -26 -109 -9 -44 -22 -107 -30
-140 -27 -125 -44 -203 -60 -280 -9 -44 -21 -93 -25 -110 -5 -16 -12 -50 -15
-75 -4 -25 -10 -58 -15 -75 -10 -36 -29 -122 -41 -185 -4 -25 -15 -74 -23
-110 -34 -150 -48 -218 -56 -267 -4 -28 -11 -57 -15 -62 -3 -6 -10 -34 -15
-63 -5 -29 -16 -84 -25 -123 -9 -38 -23 -104 -31 -145 -9 -41 -23 -104 -31
-140 -8 -36 -18 -85 -22 -110 -12 -65 -31 -150 -41 -185 -5 -16 -12 -48 -15
-70 -3 -22 -10 -56 -15 -75 -5 -19 -16 -71 -25 -115 -9 -44 -21 -98 -26 -119
-6 -21 -15 -60 -19 -85 -5 -25 -16 -77 -25 -116 -8 -38 -20 -95 -25 -125 -6
-30 -14 -71 -19 -90 -5 -19 -17 -71 -26 -115 -9 -44 -23 -105 -31 -136 -8 -30
-14 -67 -14 -82 0 -15 -4 -35 -10 -45 -5 -9 -13 -42 -19 -72 -5 -30 -17 -84
-26 -120 -8 -36 -20 -83 -25 -106 -5 -22 -13 -51 -18 -65 -5 -13 -17 -51 -27
-84 -9 -33 -21 -69 -25 -80 -5 -11 -18 -47 -29 -80 -27 -84 -38 -110 -111
-270 -59 -129 -73 -155 -103 -202 -15 -24 -27 -45 -27 -49 0 -8 -121 -188
-161 -238 -110 -138 -186 -219 -299 -316 -66 -57 -215 -170 -224 -170 -3 0
-25 -13 -49 -30 -25 -16 -50 -30 -56 -30 -6 0 -11 -4 -11 -10 0 -5 -5 -10 -11
-10 -7 0 -34 -13 -61 -30 -26 -16 -57 -30 -67 -30 -10 0 -24 -7 -31 -15 -7 -8
-20 -15 -29 -15 -9 0 -21 -4 -26 -9 -6 -5 -39 -18 -75 -31 -36 -12 -69 -25
-75 -30 -5 -4 -23 -10 -40 -13 -16 -2 -43 -9 -60 -15 -63 -22 -106 -33 -157
-43 -29 -5 -87 -16 -128 -24 -75 -15 -162 -25 -365 -45 -126 -12 -763 -13
-1737 -3 -540 5 -679 9 -694 20 -17 12 -17 16 -2 81 9 37 22 94 28 127 7 33
18 85 25 115 21 87 37 161 46 210 4 25 15 74 23 110 8 36 21 99 30 140 9 41
23 107 32 145 9 39 20 93 24 122 5 28 11 57 15 62 3 6 10 32 15 59 9 50 33
166 57 272 8 36 18 85 22 110 11 58 29 142 46 205 14 56 52 241 66 324 6 29
14 62 19 72 6 10 10 31 10 48 0 16 4 41 10 56 5 14 14 49 20 78 5 29 16 84 25
122 20 86 41 191 55 269 6 33 14 64 18 70 3 6 10 31 14 56 8 49 28 147 53 255
9 39 20 93 25 122 4 28 11 56 14 61 3 6 10 36 16 69 5 32 16 87 23 123 8 36
20 90 26 120 7 30 16 71 20 90 5 19 17 71 26 115 9 44 21 98 27 120 6 22 14
63 19 90 8 51 23 121 54 255 9 41 20 95 24 120 4 25 13 63 18 85 12 43 32 132
58 260 21 101 30 144 48 225 9 36 23 101 32 145 21 102 44 209 55 260 24 106
32 144 40 192 4 28 11 56 14 61 3 5 10 33 15 63 16 85 56 272 87 404 9 39 20
93 24 122 5 28 11 57 15 63 4 6 11 35 15 63 5 29 16 86 25 127 9 41 20 93 25
115 4 22 12 60 18 85 6 25 18 81 27 125 9 44 20 94 25 110 5 17 13 55 19 85 6
30 18 89 27 130 9 41 19 93 24 115 4 22 12 60 18 85 12 49 34 152 52 245 7 33
18 85 25 115 7 30 21 91 30 135 9 44 23 107 30 140 8 33 21 96 30 140 9 44 20
96 25 115 4 19 15 71 24 115 10 44 22 100 28 125 6 25 14 63 18 85 4 22 22
105 40 185 18 80 36 165 40 190 11 63 40 192 45 200 2 4 9 31 14 61 16 88 39
199 57 274 9 39 20 93 24 122 5 28 11 56 14 61 3 5 10 33 15 63 6 30 17 86 26
124 9 39 19 84 22 100 5 30 28 58 51 66 29 10 2394 0 2512 -11z m4845 -5
l1380 -5 18 -21 c10 -12 15 -29 12 -38 -4 -9 -11 -35 -16 -58 -5 -24 -14 -64
-20 -90 -7 -27 -15 -68 -20 -93 -4 -25 -15 -76 -24 -115 -16 -69 -38 -171 -50
-230 -12 -57 -36 -170 -47 -215 -6 -25 -14 -63 -18 -85 -23 -121 -32 -163 -40
-190 -5 -16 -16 -66 -25 -110 -9 -44 -23 -107 -30 -140 -8 -33 -17 -77 -20
-97 -3 -21 -18 -52 -32 -69 l-27 -32 -1092 4 -1092 4 -25 -23 c-14 -14 -27
-39 -30 -60 -3 -20 -12 -66 -20 -102 -9 -36 -22 -99 -31 -140 -9 -41 -23 -106
-31 -145 -9 -38 -18 -83 -21 -100 -3 -16 -12 -57 -19 -90 -8 -33 -21 -96 -30
-140 -9 -44 -20 -96 -25 -115 -4 -19 -16 -71 -25 -115 -9 -44 -23 -107 -30
-140 -7 -33 -21 -96 -30 -140 -9 -44 -20 -98 -25 -120 -5 -22 -16 -76 -25
-120 -25 -119 -46 -215 -57 -260 -6 -22 -14 -62 -19 -90 -4 -27 -22 -113 -39
-190 -18 -77 -36 -163 -40 -192 -5 -28 -11 -57 -15 -63 -4 -6 -11 -35 -15 -63
-5 -29 -14 -76 -21 -105 -9 -39 -9 -59 -1 -77 l11 -24 828 -6 c985 -6 1040 -7
1060 -28 17 -16 16 -18 -29 -207 -6 -25 -14 -65 -19 -90 -4 -25 -21 -106 -38
-180 -17 -74 -35 -158 -40 -187 -6 -28 -14 -68 -19 -90 -11 -41 -31 -131 -57
-258 -9 -44 -21 -93 -26 -109 -5 -16 -9 -40 -9 -54 0 -14 -6 -48 -14 -76 -16
-59 -42 -173 -51 -230 -4 -22 -17 -48 -32 -62 l-26 -24 -934 0 -934 0 -24 -24
c-13 -13 -26 -35 -29 -48 -30 -149 -39 -192 -51 -243 -8 -33 -16 -71 -18 -85
-3 -14 -20 -90 -37 -170 -45 -203 -58 -267 -69 -328 -6 -29 -13 -57 -16 -63
-4 -5 -11 -34 -15 -62 -5 -29 -16 -83 -25 -122 -8 -38 -20 -97 -26 -129 -5
-32 -14 -67 -19 -77 -6 -10 -10 -30 -10 -45 0 -15 -6 -53 -14 -83 -8 -31 -22
-92 -31 -136 -9 -44 -20 -96 -25 -115 -5 -19 -16 -71 -25 -115 -9 -44 -22
-107 -30 -140 -7 -33 -21 -96 -30 -140 -9 -44 -21 -96 -26 -115 -5 -19 -13
-60 -19 -90 -5 -30 -17 -86 -26 -125 -25 -107 -25 -118 -9 -140 16 -20 29 -20
1099 -23 1268 -3 1134 13 1104 -128 -10 -49 -23 -111 -28 -139 -5 -27 -13 -68
-19 -90 -5 -22 -17 -74 -26 -115 -9 -41 -20 -93 -25 -115 -5 -22 -16 -76 -25
-120 -9 -44 -23 -103 -31 -131 -7 -28 -14 -63 -14 -78 0 -15 -4 -35 -10 -45
-5 -10 -14 -45 -20 -77 -5 -32 -17 -90 -26 -129 -8 -38 -19 -90 -23 -115 -5
-25 -13 -65 -19 -90 -6 -25 -17 -72 -24 -104 -6 -33 -21 -70 -33 -83 l-20 -24
-970 0 c-1181 1 -2841 10 -2873 17 -22 4 -23 9 -19 52 3 26 10 67 15 92 6 25
15 72 22 105 6 33 16 75 21 92 6 18 14 54 19 80 5 27 23 113 40 193 17 80 33
156 36 170 9 44 35 163 49 225 8 33 21 96 30 140 9 44 20 98 25 120 5 22 16
74 25 115 9 41 21 95 27 120 6 25 14 63 18 85 5 22 16 74 25 115 9 41 20 98
25 125 5 28 14 68 19 90 19 81 40 172 56 250 33 158 46 221 55 255 4 19 15 71
25 115 9 44 22 109 30 145 8 36 17 79 20 95 3 17 13 62 21 100 8 39 19 92 24
119 5 26 13 62 18 80 6 17 17 69 27 116 9 47 22 110 30 140 7 30 18 82 25 115
20 101 41 198 53 240 5 22 13 60 17 85 4 25 15 79 25 120 25 108 43 197 55
264 6 32 15 67 20 77 6 10 10 29 10 43 0 15 6 52 14 84 8 31 22 93 31 137 9
44 21 96 25 115 4 19 16 71 25 115 32 152 47 220 57 259 5 21 14 60 18 85 5
25 16 80 25 121 8 41 20 98 25 127 6 29 15 64 20 78 6 15 10 38 10 52 0 15 7
49 14 77 8 28 22 87 31 131 9 44 20 96 25 115 4 19 15 71 24 115 10 44 22 100
28 125 6 25 14 63 18 85 5 22 15 72 23 110 31 145 49 231 57 270 4 22 13 63
19 90 7 28 17 70 23 95 6 25 14 65 19 90 24 136 31 164 39 181 6 10 10 27 10
39 0 23 23 135 42 205 6 22 15 60 19 85 8 43 13 70 53 250 9 41 21 99 26 128
5 29 11 56 14 60 3 5 10 35 15 68 6 32 18 91 27 129 29 127 45 199 53 245 4
25 13 65 19 90 5 25 18 81 27 125 10 44 24 109 32 145 7 36 19 88 24 115 24
110 41 193 54 250 7 33 21 98 30 145 9 47 21 95 26 108 5 13 9 33 9 44 0 12 7
51 15 87 33 140 44 189 60 266 32 152 46 220 54 255 5 19 16 67 25 105 11 49
24 77 41 92 l26 23 532 -5 c293 -3 1153 -7 1912 -10z m-11613 -10334 c24 -6
79 -15 123 -21 289 -40 518 -123 731 -263 73 -47 202 -168 254 -236 14 -18 30
-38 36 -44 5 -7 13 -19 17 -27 4 -8 21 -37 37 -65 47 -80 100 -197 100 -223 0
-10 4 -22 10 -28 10 -10 21 -52 47 -189 19 -97 31 -401 21 -545 -8 -121 -45
-383 -66 -465 -6 -22 -18 -76 -27 -120 -9 -44 -21 -98 -26 -120 -5 -22 -14
-62 -20 -90 -5 -27 -17 -81 -25 -120 -8 -38 -19 -92 -24 -120 -4 -27 -13 -63
-19 -78 -6 -16 -11 -42 -11 -58 0 -17 -4 -38 -10 -48 -5 -10 -14 -43 -19 -72
-16 -91 -51 -261 -65 -319 -8 -30 -22 -91 -31 -135 -9 -44 -21 -98 -26 -120
-5 -22 -14 -65 -20 -95 -6 -30 -17 -84 -25 -120 -8 -36 -19 -85 -24 -110 -5
-25 -14 -67 -20 -95 -6 -27 -18 -84 -27 -125 -8 -41 -19 -91 -23 -110 -5 -19
-16 -69 -25 -110 -9 -41 -22 -104 -30 -140 -8 -36 -21 -101 -30 -145 -9 -44
-20 -93 -25 -110 -5 -16 -12 -48 -15 -70 -4 -22 -11 -53 -15 -70 -5 -16 -16
-66 -25 -110 -9 -44 -21 -100 -27 -125 -6 -25 -14 -65 -19 -90 -4 -25 -15 -76
-24 -115 -8 -38 -19 -94 -25 -123 -5 -29 -11 -56 -14 -61 -3 -4 -9 -32 -15
-62 -5 -30 -19 -97 -30 -149 -12 -52 -26 -115 -31 -140 -5 -25 -17 -76 -26
-115 -8 -38 -19 -90 -24 -115 -4 -25 -12 -65 -18 -90 -6 -25 -18 -81 -27 -125
-9 -44 -20 -93 -25 -110 -5 -16 -11 -50 -15 -75 -4 -25 -11 -58 -15 -75 -5
-16 -16 -64 -25 -105 -36 -174 -47 -227 -58 -265 -5 -22 -14 -60 -18 -85 -4
-25 -15 -79 -24 -120 -9 -41 -20 -93 -25 -115 -4 -22 -12 -60 -18 -85 -6 -25
-18 -81 -27 -125 -9 -44 -20 -93 -25 -110 -8 -27 -17 -69 -40 -190 -4 -22 -12
-60 -18 -85 -10 -43 -21 -95 -57 -265 -9 -44 -21 -94 -26 -111 -5 -17 -9 -39
-9 -50 0 -10 -6 -39 -14 -64 -8 -25 -22 -72 -30 -105 -51 -188 -106 -346 -176
-500 -33 -72 -100 -210 -113 -230 -6 -11 -28 -44 -47 -75 -19 -30 -37 -60 -40
-65 -12 -24 -97 -144 -134 -190 -159 -194 -303 -327 -470 -437 -39 -26 -76
-51 -83 -57 -6 -5 -76 -42 -155 -82 -202 -101 -198 -99 -213 -99 -7 0 -26 -6
-42 -14 -46 -24 -244 -80 -388 -110 -228 -48 -365 -59 -690 -60 -252 0 -355 5
-480 25 -33 6 -88 14 -123 20 -35 5 -72 14 -82 19 -10 6 -28 10 -40 10 -22 0
-114 26 -140 39 -9 5 -30 12 -48 15 -17 4 -34 12 -37 17 -4 5 -13 9 -21 9 -20
0 -137 56 -213 103 -192 117 -341 275 -433 461 -17 34 -37 73 -44 88 -8 14
-14 33 -14 41 0 8 -7 28 -15 43 -8 16 -15 37 -15 47 0 9 -4 25 -10 35 -5 9
-14 44 -20 77 -47 255 -46 608 4 895 8 47 19 116 25 153 6 38 16 77 21 87 6
10 10 32 10 49 0 16 4 41 10 56 5 14 14 49 20 78 5 29 16 84 24 122 9 39 22
104 31 145 9 41 20 93 24 115 5 22 14 67 21 100 6 33 18 80 26 105 8 25 14 57
14 71 0 14 4 39 9 55 5 16 17 65 26 109 9 44 22 107 30 140 14 62 34 154 61
285 9 41 20 91 24 110 5 19 16 71 25 115 9 44 23 103 31 131 7 28 14 61 14 73
0 12 6 47 14 79 8 31 22 93 31 137 10 44 21 94 25 110 9 33 26 115 39 185 4
25 13 65 19 90 5 25 18 81 27 125 9 44 21 96 25 115 4 19 15 71 24 115 10 44
22 100 28 125 6 25 14 65 19 90 4 25 12 65 18 90 7 25 16 65 21 90 28 133 43
201 56 252 8 32 14 69 14 84 0 14 4 33 10 43 5 10 14 45 20 77 5 32 17 91 26
129 8 39 19 90 23 115 4 25 13 63 18 85 6 22 19 76 28 120 9 44 20 94 25 110
4 17 11 48 14 70 7 40 30 149 46 215 4 19 15 71 24 115 10 44 22 100 28 125 6
25 14 65 19 90 5 25 16 77 24 115 9 39 20 90 24 115 4 25 13 63 18 85 6 22 19
76 28 120 9 44 23 107 30 140 7 33 20 96 29 140 9 44 21 94 26 111 6 17 10 42
10 57 0 14 5 38 11 54 6 15 15 51 19 78 4 28 15 82 25 120 9 39 21 90 26 114
5 25 13 59 18 75 5 17 17 58 27 91 23 79 73 233 86 265 5 14 16 39 23 55 7 17
22 53 33 80 25 60 94 203 129 265 41 73 136 224 150 238 7 7 13 17 13 20 0 4
10 18 23 32 12 14 43 52 69 85 25 33 85 99 133 147 202 203 406 339 690 463
86 38 104 45 114 45 6 0 19 4 29 9 9 6 44 17 77 26 33 10 80 23 105 30 153 45
345 76 580 95 132 10 614 4 672 -9z m9673 -22 c44 -6 103 -13 130 -15 28 -3
77 -11 110 -19 33 -7 85 -19 115 -25 277 -61 552 -207 719 -380 46 -48 135
-167 161 -215 12 -22 29 -53 39 -70 10 -16 27 -57 39 -90 11 -34 25 -72 30
-85 15 -39 39 -136 58 -235 14 -69 17 -144 17 -320 0 -257 -15 -388 -78 -685
-7 -36 -21 -101 -30 -145 -8 -44 -20 -94 -25 -111 -6 -17 -10 -41 -10 -54 0
-13 -6 -46 -14 -74 -16 -55 -34 -134 -47 -206 -4 -25 -14 -74 -22 -110 -24
-106 -48 -222 -57 -272 -5 -27 -12 -53 -15 -59 -4 -5 -11 -34 -15 -62 -5 -29
-14 -74 -20 -102 -43 -197 -41 -191 -70 -208 -25 -15 -76 -17 -487 -17 -648 0
-1100 10 -1120 25 -18 13 -16 24 19 175 6 25 15 65 19 90 4 25 14 74 22 110 8
36 23 101 32 145 9 44 23 109 31 145 8 36 19 85 24 110 10 50 32 151 54 250
21 98 47 220 56 265 4 22 12 60 18 85 44 183 41 303 -9 415 -29 63 -103 122
-194 154 -81 29 -261 30 -355 2 -86 -26 -130 -44 -130 -53 0 -4 -7 -8 -15 -8
-8 0 -48 -33 -88 -72 -70 -70 -84 -93 -157 -248 -11 -22 -35 -114 -54 -205
-10 -44 -22 -94 -27 -112 -6 -17 -14 -56 -19 -85 -5 -29 -17 -84 -26 -123 -9
-38 -20 -92 -24 -120 -4 -27 -13 -63 -19 -78 -6 -16 -11 -42 -11 -58 0 -17 -5
-39 -10 -49 -6 -10 -14 -45 -19 -77 -6 -32 -19 -105 -31 -163 -20 -95 -20
-114 -9 -200 6 -52 18 -113 25 -135 8 -22 14 -46 14 -52 0 -11 45 -116 69
-163 56 -108 153 -257 220 -338 154 -187 371 -410 546 -561 55 -47 118 -101
140 -120 77 -66 330 -328 375 -387 25 -32 62 -80 82 -105 21 -25 38 -49 38
-53 0 -5 14 -25 30 -46 17 -21 30 -41 30 -44 0 -3 17 -34 38 -68 35 -58 94
-175 113 -223 4 -11 14 -36 22 -55 130 -317 174 -670 132 -1045 -12 -111 -20
-153 -61 -350 -8 -38 -18 -91 -23 -116 -5 -25 -14 -64 -19 -85 -6 -21 -18 -75
-27 -119 -9 -44 -21 -96 -25 -115 -5 -19 -16 -71 -25 -115 -9 -44 -20 -98 -26
-120 -6 -22 -14 -60 -18 -85 -9 -48 -27 -133 -41 -190 -5 -19 -16 -69 -25
-110 -56 -263 -128 -526 -171 -627 -8 -17 -14 -36 -14 -41 0 -6 -6 -23 -14
-39 -8 -15 -19 -39 -25 -53 -47 -115 -102 -229 -141 -295 -16 -27 -33 -57 -37
-65 -8 -18 -64 -111 -75 -125 -5 -5 -29 -39 -54 -74 -26 -36 -51 -70 -55 -75
-91 -113 -229 -252 -335 -337 -67 -55 -214 -158 -244 -172 -8 -4 -28 -15 -45
-25 -45 -27 -144 -78 -190 -97 -22 -9 -53 -23 -70 -30 -16 -7 -52 -21 -80 -30
-27 -10 -59 -21 -70 -25 -78 -31 -291 -82 -455 -109 -300 -48 -823 -49 -1080
-1 -120 23 -207 43 -245 56 -23 8 -48 14 -57 14 -9 0 -29 7 -44 15 -16 8 -37
15 -46 15 -9 0 -20 5 -23 10 -3 6 -13 10 -21 10 -41 0 -237 111 -354 200 -103
79 -228 221 -274 313 -9 18 -21 39 -26 47 -5 8 -11 22 -14 30 -3 8 -10 22 -15
30 -5 8 -17 35 -26 60 -10 25 -21 54 -25 65 -12 30 -36 129 -57 225 -14 70
-17 133 -17 360 0 178 5 295 13 332 6 31 16 87 21 125 5 37 16 102 25 143 8
41 19 98 24 125 5 28 13 68 19 90 6 22 18 76 27 120 9 44 21 96 26 115 5 19
13 60 19 90 6 30 17 87 26 125 8 39 19 90 23 115 5 25 13 65 19 90 6 25 18 77
26 115 8 39 22 99 29 135 8 36 20 92 27 125 31 157 44 201 65 221 l23 21 788
-5 c619 -3 792 -7 802 -17 17 -15 7 -71 -62 -385 -9 -41 -21 -95 -25 -120 -5
-25 -13 -65 -19 -90 -6 -25 -18 -81 -27 -125 -9 -44 -20 -96 -25 -115 -5 -19
-16 -71 -25 -115 -9 -44 -22 -107 -30 -140 -7 -33 -21 -96 -30 -140 -9 -44
-20 -96 -25 -115 -5 -19 -17 -84 -26 -144 -17 -104 -17 -113 1 -202 10 -52 22
-94 27 -94 4 0 8 -6 8 -14 0 -22 88 -103 139 -127 40 -19 166 -42 226 -42 103
1 234 34 315 80 70 40 170 150 208 229 18 38 40 82 48 97 8 16 14 38 14 48 0
11 5 29 11 40 6 11 14 41 19 67 5 26 16 81 25 122 9 41 20 93 24 115 23 107
33 154 47 201 8 28 14 59 14 70 0 17 12 77 41 194 4 19 15 71 24 115 17 81 30
141 61 270 11 48 16 114 16 207 0 137 -2 149 -50 308 -23 75 -107 240 -167
328 -28 40 -54 81 -60 90 -5 9 -44 60 -85 112 -123 156 -389 422 -636 635
-120 103 -287 276 -364 375 -19 24 -43 53 -53 65 -22 24 -117 163 -117 171 0
3 -10 20 -23 37 -84 119 -197 386 -245 577 -61 246 -64 278 -59 585 5 304 10
339 83 675 9 41 19 93 24 115 4 22 12 60 18 85 12 50 35 157 52 240 6 30 18
78 26 106 8 28 14 59 14 70 0 17 16 93 41 194 24 99 59 231 73 280 9 30 21 69
26 85 9 33 55 158 69 190 5 11 17 40 26 65 25 62 130 274 166 335 16 28 35 60
41 73 6 12 15 22 20 22 4 0 8 5 8 11 0 6 14 28 30 49 17 21 30 42 30 47 0 4
10 19 23 33 12 14 44 52 70 85 70 87 212 230 282 283 33 25 62 49 65 52 51 59
371 239 538 304 124 48 214 76 241 76 9 0 21 4 26 8 6 5 48 17 95 26 47 10
101 21 120 26 19 5 80 14 135 20 55 7 104 14 109 17 31 20 615 21 761 2z
m-5761 -149 c15 -15 17 -23 8 -51 -6 -19 -18 -70 -27 -114 -9 -44 -22 -107
-30 -140 -7 -33 -21 -96 -30 -140 -9 -44 -21 -96 -26 -115 -5 -19 -13 -60 -19
-90 -5 -30 -16 -84 -25 -120 -8 -36 -20 -92 -25 -124 -6 -33 -13 -63 -16 -68
-3 -5 -10 -33 -14 -61 -5 -29 -16 -83 -25 -122 -8 -38 -20 -95 -26 -125 -5
-30 -14 -68 -19 -85 -5 -16 -16 -66 -25 -110 -9 -44 -21 -98 -27 -120 -6 -22
-14 -62 -19 -90 -4 -27 -15 -79 -23 -115 -8 -36 -18 -78 -21 -95 -11 -52 -36
-168 -47 -215 -6 -25 -14 -65 -19 -90 -4 -25 -12 -65 -18 -90 -6 -25 -16 -70
-22 -100 -19 -96 -40 -194 -52 -235 -5 -22 -14 -60 -18 -85 -4 -25 -14 -74
-22 -110 -18 -77 -47 -215 -54 -250 -2 -14 -10 -52 -18 -85 -7 -33 -21 -96
-30 -140 -9 -44 -20 -93 -25 -110 -5 -16 -11 -50 -15 -75 -4 -25 -11 -58 -15
-75 -5 -16 -17 -66 -25 -110 -9 -44 -23 -107 -30 -140 -18 -79 -44 -200 -55
-250 -5 -22 -16 -76 -25 -120 -9 -44 -21 -98 -27 -120 -6 -22 -15 -60 -19 -85
-4 -25 -21 -110 -39 -190 -18 -80 -34 -156 -37 -170 -9 -51 -35 -166 -49 -216
-8 -28 -14 -59 -14 -70 0 -10 -7 -50 -16 -89 -27 -118 -31 -137 -49 -220 -9
-44 -23 -107 -30 -140 -7 -33 -21 -96 -30 -140 -9 -44 -20 -96 -25 -115 -9
-34 -21 -88 -41 -197 -5 -29 -14 -64 -19 -78 -6 -15 -10 -40 -10 -56 0 -17 -5
-40 -11 -51 -6 -11 -15 -44 -19 -72 -9 -58 -55 -283 -69 -336 -5 -19 -17 -71
-26 -115 -10 -44 -23 -107 -30 -140 -7 -33 -18 -82 -23 -110 -13 -61 -42 -194
-87 -400 -7 -33 -18 -85 -24 -115 -6 -30 -16 -75 -22 -100 -5 -25 -17 -79 -25
-120 -9 -41 -20 -93 -24 -115 -5 -22 -14 -65 -20 -95 -7 -30 -16 -70 -21 -87
-33 -108 -49 -320 -29 -387 31 -104 86 -176 160 -209 152 -68 373 -62 521 14
80 40 180 129 195 172 3 9 9 17 13 17 8 0 59 102 84 165 22 60 48 161 82 330
9 44 22 107 30 140 7 33 21 96 30 140 9 44 20 96 25 115 5 19 16 71 25 115 9
44 21 100 27 125 6 25 14 65 19 90 8 45 22 112 39 180 5 19 16 71 25 115 9 44
21 100 27 125 6 25 14 65 19 90 4 25 15 77 24 115 8 39 23 104 31 145 9 41 23
104 31 140 8 36 18 88 23 117 4 28 11 57 15 62 3 6 10 34 15 63 5 29 17 87 26
128 48 217 74 339 83 397 5 28 12 56 15 61 3 5 10 33 15 63 5 30 14 74 20 99
6 25 16 70 22 100 15 78 35 167 49 225 7 28 16 70 21 95 4 25 15 74 23 110 8
36 19 90 25 120 6 30 15 73 20 95 5 22 17 76 26 120 9 44 23 103 31 131 8 28
14 61 14 73 0 13 6 46 14 74 8 29 19 79 26 112 6 33 18 87 25 120 18 78 35
160 46 210 19 94 39 185 54 255 17 76 23 106 45 215 6 33 16 74 21 92 6 17 14
56 19 85 6 29 17 82 25 118 8 36 20 92 26 124 5 32 14 67 19 77 6 10 10 29 10
43 0 13 6 51 14 83 8 32 21 94 30 138 10 44 21 96 26 115 4 19 16 71 25 115 9
44 21 98 27 120 6 22 14 63 19 90 4 28 15 82 24 120 9 39 20 91 25 116 4 25
13 64 18 85 15 55 33 141 42 194 4 25 15 77 24 115 9 39 21 95 27 125 6 30 14
69 19 85 5 17 16 66 25 110 9 44 21 100 27 125 6 25 14 65 19 90 4 25 15 77
24 115 20 87 43 196 54 255 5 25 16 77 25 115 9 39 23 102 30 140 17 86 23
104 49 133 l20 22 788 0 c773 0 788 0 802 -20 16 -22 11 -62 -22 -210 -12 -52
-26 -115 -31 -140 -5 -25 -16 -76 -25 -115 -31 -140 -47 -211 -55 -255 -5 -25
-14 -67 -20 -95 -6 -27 -18 -84 -27 -125 -8 -41 -19 -91 -24 -110 -4 -19 -13
-60 -20 -90 -6 -30 -18 -84 -26 -120 -7 -36 -18 -88 -23 -117 -4 -28 -11 -56
-14 -61 -3 -5 -10 -33 -15 -63 -6 -30 -17 -85 -26 -124 -8 -38 -20 -96 -25
-127 -6 -32 -15 -69 -20 -84 -6 -14 -10 -39 -10 -55 0 -17 -5 -39 -11 -51 -6
-11 -15 -45 -20 -77 -5 -31 -15 -85 -24 -121 -8 -36 -22 -96 -30 -135 -8 -38
-22 -101 -30 -140 -9 -38 -20 -90 -25 -115 -4 -25 -22 -108 -40 -185 -17 -77
-35 -163 -40 -192 -4 -28 -13 -66 -18 -85 -6 -18 -16 -60 -22 -93 -22 -109
-28 -139 -45 -215 -9 -41 -23 -106 -31 -145 -8 -38 -19 -88 -23 -110 -5 -22
-14 -67 -21 -100 -7 -33 -18 -82 -26 -109 -8 -26 -14 -58 -14 -71 0 -12 -4
-35 -9 -51 -5 -16 -17 -65 -26 -109 -9 -44 -22 -107 -30 -140 -7 -33 -21 -96
-30 -140 -33 -158 -46 -221 -55 -255 -4 -19 -16 -71 -25 -115 -9 -44 -21 -98
-27 -120 -6 -22 -14 -62 -19 -90 -8 -50 -22 -116 -54 -255 -9 -41 -21 -95 -25
-120 -5 -25 -19 -88 -30 -140 -12 -52 -26 -113 -31 -135 -4 -22 -15 -71 -23
-110 -8 -38 -18 -83 -21 -100 -12 -59 -36 -171 -47 -215 -6 -25 -14 -65 -18
-90 -4 -25 -16 -79 -25 -120 -27 -119 -45 -201 -54 -250 -5 -25 -16 -76 -25
-115 -9 -38 -23 -101 -31 -140 -8 -38 -21 -101 -30 -140 -8 -38 -19 -92 -24
-120 -5 -27 -14 -63 -20 -78 -6 -16 -11 -40 -11 -54 0 -15 -6 -49 -14 -77 -8
-28 -22 -89 -31 -136 -9 -47 -21 -101 -25 -120 -5 -19 -14 -60 -21 -90 -6 -30
-18 -84 -26 -120 -8 -36 -19 -85 -23 -110 -5 -25 -13 -67 -19 -95 -6 -27 -15
-70 -21 -95 -29 -139 -59 -261 -85 -355 -31 -109 -78 -251 -87 -259 -4 -6 -8
-19 -8 -31 0 -12 -4 -25 -8 -31 -4 -5 -18 -36 -31 -69 -77 -197 -246 -494
-359 -630 -9 -11 -39 -47 -66 -80 -132 -159 -337 -331 -521 -439 -44 -26 -87
-51 -95 -56 -19 -12 -63 -33 -120 -58 -25 -11 -71 -32 -104 -46 -32 -14 -66
-26 -75 -26 -9 0 -21 -4 -26 -9 -6 -5 -37 -16 -70 -26 -33 -9 -78 -23 -100
-31 -23 -8 -49 -14 -59 -14 -11 0 -42 -6 -70 -14 -310 -86 -952 -103 -1316
-34 -30 5 -73 14 -95 18 -60 11 -138 31 -155 40 -9 4 -31 11 -50 15 -19 4 -41
11 -50 16 -8 4 -33 15 -55 24 -22 9 -53 23 -68 31 -16 8 -33 14 -37 14 -21 0
-200 117 -266 174 -66 57 -194 196 -194 211 0 3 -10 21 -23 38 -41 58 -68 110
-102 197 -9 25 -21 54 -26 65 -31 75 -58 215 -75 395 -12 126 -13 186 -4 320
11 174 35 374 51 426 5 17 9 42 9 56 0 14 6 48 14 74 8 27 19 76 26 109 7 33
16 78 21 100 34 156 68 316 79 376 4 25 13 64 18 85 12 44 30 129 42 189 4 22
22 105 40 185 18 80 35 165 39 190 4 25 13 63 18 85 12 43 39 163 46 205 3 14
19 90 37 170 17 80 36 169 41 199 6 30 12 58 15 62 3 5 9 32 15 61 5 29 16 85
25 123 23 107 43 205 54 262 6 29 15 64 20 78 6 15 10 40 10 56 0 17 5 39 10
49 6 10 14 45 20 77 9 57 22 118 55 263 9 41 21 95 25 120 5 25 16 77 25 115
17 77 43 198 55 260 16 79 41 189 46 196 2 4 8 33 13 66 5 32 14 78 20 103 6
25 16 70 22 100 6 30 17 82 24 115 7 33 20 92 29 130 8 39 22 106 31 150 9 44
21 96 25 115 5 19 16 71 25 115 9 44 21 98 27 120 5 22 13 63 18 92 4 28 11
56 14 61 3 5 10 33 15 63 6 30 17 83 25 119 24 110 48 223 56 271 5 25 13 64
18 85 6 21 18 75 27 119 9 44 21 96 25 115 4 19 16 71 25 115 9 44 23 105 31
136 8 30 14 65 14 78 0 12 6 43 14 69 13 42 27 105 58 257 5 28 16 77 23 110
7 33 20 96 30 140 9 44 21 96 26 115 5 19 13 60 19 90 5 30 17 87 25 125 9 39
19 90 23 115 4 25 11 50 15 56 4 7 11 40 17 75 5 35 17 93 26 129 21 86 43
193 54 257 4 28 11 57 15 63 4 6 11 35 16 63 12 78 29 158 40 194 11 35 27
116 36 175 3 26 15 46 37 64 l31 27 780 -7 c736 -7 781 -8 799 -26z m12019
-24 c11 -15 4 -74 -22 -186 -12 -52 -26 -115 -31 -140 -5 -25 -16 -76 -25
-115 -8 -38 -20 -97 -26 -129 -5 -32 -14 -67 -19 -77 -6 -10 -10 -31 -10 -48
0 -16 -5 -42 -11 -58 -6 -15 -15 -50 -19 -78 -5 -27 -16 -79 -24 -115 -7 -36
-21 -99 -30 -140 -8 -41 -22 -106 -31 -145 -9 -38 -20 -92 -25 -120 -4 -27
-13 -63 -19 -78 -6 -16 -11 -41 -11 -56 0 -17 -11 -37 -28 -54 l-28 -27 -1096
0 -1097 0 -20 -26 c-11 -14 -23 -42 -27 -63 -6 -40 -30 -156 -44 -211 -4 -19
-16 -71 -25 -115 -9 -44 -23 -107 -30 -140 -8 -33 -21 -96 -30 -140 -9 -44
-20 -98 -25 -120 -5 -22 -16 -76 -25 -120 -9 -44 -23 -107 -30 -140 -16 -74
-38 -175 -60 -280 -9 -44 -21 -96 -25 -115 -15 -62 -32 -144 -41 -190 -10 -53
-32 -156 -54 -255 -9 -38 -19 -83 -21 -100 -3 -16 -12 -61 -20 -100 -36 -163
-43 -194 -59 -270 -9 -44 -21 -94 -26 -111 -14 -47 -11 -90 8 -105 13 -12 175
-15 937 -18 544 -2 928 -7 939 -12 20 -11 23 -73 6 -129 -5 -19 -14 -55 -19
-80 -4 -25 -16 -76 -25 -115 -9 -38 -23 -101 -30 -140 -7 -38 -21 -101 -30
-140 -9 -38 -20 -94 -25 -123 -5 -29 -11 -56 -14 -61 -3 -4 -10 -32 -15 -62
-6 -30 -17 -83 -25 -119 -17 -81 -45 -212 -56 -265 -4 -22 -18 -83 -30 -135
-11 -52 -24 -111 -27 -130 -3 -20 -17 -44 -32 -57 l-26 -22 -934 -1 c-852 0
-936 -1 -952 -16 -18 -17 -41 -85 -54 -159 -3 -22 -10 -53 -15 -70 -5 -16 -16
-66 -25 -110 -10 -44 -23 -107 -30 -140 -7 -33 -20 -96 -29 -140 -10 -44 -21
-96 -26 -115 -14 -58 -32 -142 -40 -190 -4 -25 -16 -79 -25 -120 -28 -121 -45
-202 -54 -250 -5 -25 -18 -88 -30 -140 -12 -52 -26 -115 -31 -140 -5 -25 -16
-74 -24 -110 -37 -170 -48 -219 -56 -267 -4 -28 -11 -57 -15 -62 -3 -6 -10
-34 -16 -63 -5 -29 -16 -84 -25 -123 -8 -38 -21 -101 -29 -140 -7 -38 -20
-103 -29 -143 -21 -100 -13 -112 74 -113 36 0 319 -2 630 -4 311 -2 770 -6
1020 -9 250 -3 458 -6 462 -6 4 0 13 -7 21 -14 11 -12 12 -24 5 -58 -5 -24
-13 -63 -18 -88 -5 -25 -19 -88 -30 -140 -25 -105 -32 -140 -54 -250 -9 -41
-23 -106 -32 -145 -9 -38 -19 -90 -23 -115 -4 -25 -13 -63 -19 -85 -6 -22 -18
-76 -27 -120 -9 -44 -20 -96 -25 -115 -4 -19 -16 -71 -25 -115 -9 -44 -23
-107 -30 -140 -8 -33 -17 -78 -20 -99 -4 -24 -18 -50 -35 -68 l-29 -29 -1888
6 c-1038 3 -1903 8 -1920 11 -42 6 -57 34 -44 77 5 18 17 68 26 112 9 44 22
107 30 140 36 167 45 206 60 280 8 44 20 94 25 111 6 17 10 41 10 54 0 13 7
46 14 74 8 28 22 87 31 131 42 203 89 419 111 507 8 32 14 69 14 84 0 14 4 33
10 43 5 10 14 45 19 77 6 32 18 91 26 129 9 39 20 96 25 128 6 33 13 64 17 70
4 7 10 32 14 57 4 25 14 77 23 115 9 39 23 104 32 145 26 122 42 201 59 275 9
39 20 90 25 115 4 25 15 77 24 115 9 39 20 90 25 115 5 25 13 65 19 90 6 25
18 81 27 125 9 44 24 109 32 145 18 82 28 124 48 225 9 44 23 107 30 140 12
57 30 136 54 250 5 28 17 79 24 115 8 36 22 101 32 145 9 44 23 107 30 140 8
33 21 96 30 140 9 44 21 96 25 115 5 19 16 71 25 115 23 114 45 214 57 258 5
22 13 62 19 90 5 29 16 84 24 122 9 39 20 90 24 115 4 25 13 63 18 85 6 22 19
76 28 120 9 44 21 96 26 115 5 19 13 60 19 90 6 30 17 87 26 125 8 39 19 90
23 115 4 25 10 50 14 57 4 6 11 37 17 70 5 32 16 87 24 123 26 117 48 224 57
279 6 30 12 58 15 63 3 4 9 29 14 56 15 77 57 270 85 392 9 41 21 98 25 127 4
28 11 57 15 63 4 6 11 35 15 63 5 29 16 81 24 117 17 79 46 216 53 250 2 14
10 52 18 85 7 33 21 96 30 140 9 44 23 105 30 135 7 30 18 82 25 115 12 63 33
159 55 260 7 33 21 96 30 140 9 44 20 96 25 115 5 19 16 71 25 115 9 44 23
107 30 140 7 33 21 96 30 140 9 44 21 96 25 115 24 98 40 177 40 194 0 11 7
42 14 70 8 28 22 87 31 131 26 123 45 216 55 255 29 124 40 177 40 192 0 9 12
26 27 38 l27 21 1921 -7 c1383 -5 1922 -10 1928 -18z"/>
<path d="M12224 24192 c-114 -29 -206 -83 -277 -162 -48 -53 -60 -71 -97 -150
-53 -113 -68 -162 -110 -375 -7 -33 -18 -85 -25 -115 -7 -30 -21 -91 -30 -135
-9 -44 -21 -98 -27 -119 -5 -21 -13 -60 -18 -85 -5 -25 -13 -66 -19 -91 -6
-25 -16 -70 -22 -100 -19 -97 -40 -194 -50 -235 -6 -22 -14 -63 -19 -92 -4
-28 -11 -56 -14 -61 -5 -8 -11 -36 -35 -172 -6 -30 -14 -71 -20 -90 -5 -19
-17 -71 -26 -115 -9 -44 -23 -107 -30 -140 -8 -33 -21 -96 -30 -140 -9 -44
-21 -96 -25 -115 -4 -19 -16 -71 -25 -115 -9 -44 -23 -107 -30 -140 -8 -33
-17 -73 -20 -90 -7 -33 -28 -132 -51 -240 -8 -38 -19 -93 -24 -122 -4 -28 -11
-57 -15 -63 -4 -6 -11 -35 -15 -63 -8 -49 -20 -104 -40 -187 -5 -19 -16 -73
-25 -120 -9 -47 -23 -110 -30 -140 -8 -30 -16 -68 -19 -85 -3 -16 -12 -61 -21
-100 -9 -38 -23 -104 -31 -145 -9 -41 -23 -104 -31 -140 -8 -36 -18 -85 -23
-110 -10 -54 -27 -129 -42 -190 -6 -25 -14 -65 -19 -90 -4 -25 -15 -76 -24
-115 -9 -38 -21 -94 -26 -124 -5 -30 -12 -58 -15 -63 -3 -5 -10 -33 -15 -61
-9 -55 -29 -149 -53 -257 -9 -36 -18 -78 -21 -95 -11 -52 -36 -168 -47 -215
-6 -25 -14 -65 -19 -90 -4 -25 -14 -74 -22 -110 -24 -106 -48 -222 -57 -272
-5 -27 -11 -52 -14 -56 -3 -5 -10 -33 -15 -63 -6 -30 -17 -83 -25 -119 -33
-149 -48 -218 -56 -265 -5 -27 -14 -68 -19 -90 -17 -66 -13 -214 7 -270 43
-123 112 -186 241 -219 106 -27 298 -15 386 23 11 5 27 12 35 15 51 20 144 95
190 152 72 90 139 246 160 369 5 28 13 68 18 90 10 40 34 147 53 240 6 28 15
70 21 95 6 25 14 65 19 90 4 25 12 63 17 85 6 22 18 76 27 120 31 150 38 180
51 232 8 28 14 61 14 74 0 12 6 45 14 73 16 56 34 137 47 206 4 25 15 77 24
115 9 39 20 94 26 124 5 30 12 58 15 63 3 4 9 29 14 56 8 47 28 142 56 277 9
39 19 88 23 110 18 85 33 152 43 190 6 22 15 60 19 85 4 25 14 74 22 110 8 36
22 99 31 140 8 41 23 107 31 145 9 39 20 90 25 115 4 25 15 77 24 115 27 115
47 207 55 255 5 25 13 65 19 90 6 25 18 81 27 125 9 44 20 94 25 110 5 17 14
55 19 85 6 30 15 78 21 105 5 28 14 66 19 85 5 19 17 73 26 120 9 47 23 114
32 150 19 82 28 125 48 225 9 44 21 98 27 120 5 22 13 60 18 85 4 25 15 77 24
115 9 39 21 93 26 120 5 28 14 68 19 90 6 22 17 76 26 120 9 44 23 107 30 140
7 33 21 96 30 140 9 44 21 94 26 111 5 17 9 41 9 54 0 13 6 46 14 74 8 28 22
87 31 131 9 44 21 96 26 115 6 19 14 58 19 85 5 28 16 84 25 125 29 133 42
276 33 353 -17 143 -110 247 -247 279 -85 19 -239 19 -317 0z"/>
<path d="M16784 24022 c-24 -16 -35 -32 -39 -60 -4 -20 -10 -48 -15 -62 -5
-14 -11 -41 -14 -60 -5 -36 -19 -102 -57 -270 -11 -52 -25 -115 -30 -140 -4
-25 -16 -79 -25 -120 -37 -170 -45 -207 -53 -250 -5 -25 -16 -76 -25 -115 -9
-38 -24 -104 -32 -145 -9 -41 -22 -104 -30 -140 -8 -36 -18 -89 -23 -118 -6
-29 -13 -57 -16 -63 -4 -5 -11 -34 -16 -62 -11 -67 -32 -172 -54 -267 -10 -41
-21 -96 -26 -123 -4 -26 -12 -62 -18 -80 -5 -17 -15 -59 -21 -92 -22 -109 -28
-139 -45 -215 -9 -41 -20 -97 -25 -125 -5 -27 -13 -66 -19 -85 -10 -38 -31
-131 -56 -255 -9 -44 -20 -98 -25 -120 -5 -22 -16 -74 -25 -115 -9 -41 -21
-95 -27 -120 -6 -25 -14 -65 -19 -90 -4 -25 -14 -74 -22 -110 -8 -36 -23 -101
-32 -145 -9 -44 -23 -111 -32 -150 -8 -38 -18 -88 -22 -110 -4 -23 -10 -46
-14 -52 -4 -6 -11 -37 -17 -70 -9 -55 -15 -87 -54 -263 -9 -41 -21 -102 -27
-134 -5 -33 -13 -64 -17 -70 -3 -6 -9 -31 -13 -56 -4 -25 -21 -110 -39 -190
-17 -80 -35 -166 -40 -191 -5 -25 -13 -64 -18 -85 -6 -21 -18 -75 -27 -119
-10 -44 -23 -107 -30 -140 -8 -33 -19 -87 -25 -120 -6 -33 -16 -78 -22 -100
-6 -22 -15 -60 -19 -85 -4 -25 -12 -63 -17 -85 -6 -22 -18 -76 -27 -120 -31
-146 -34 -160 -49 -230 -8 -38 -22 -106 -31 -150 -9 -44 -23 -105 -30 -135 -8
-30 -16 -71 -19 -90 -3 -19 -13 -64 -21 -100 -9 -36 -20 -87 -25 -115 -4 -27
-13 -63 -19 -78 -6 -16 -11 -41 -11 -56 0 -16 -7 -48 -15 -71 -15 -41 -14 -45
7 -77 l23 -33 250 0 c288 0 439 20 496 67 8 7 21 13 28 13 7 0 49 37 94 83 89
89 127 154 170 287 28 89 57 207 57 234 0 11 6 42 14 70 13 47 27 109 54 241
16 74 41 192 57 260 13 58 30 137 62 295 8 41 19 85 24 98 5 13 9 35 9 49 0
14 6 49 14 77 8 28 20 78 26 111 7 33 16 78 21 100 17 80 61 287 74 350 3 17
12 57 20 90 7 33 21 96 30 140 9 44 21 96 25 115 5 19 16 71 25 115 17 81 36
172 60 280 7 33 21 96 30 140 9 44 20 96 25 115 4 19 16 71 25 115 9 44 21 98
27 120 6 22 14 63 18 90 5 28 13 70 19 95 7 25 16 65 21 90 22 110 42 208 52
245 5 22 13 60 18 85 4 25 15 77 24 115 9 39 23 102 31 140 8 39 22 102 31
140 9 39 20 90 24 115 4 25 12 65 18 90 12 48 34 149 52 240 7 30 18 82 25
115 7 33 20 96 30 140 9 44 21 97 26 118 6 22 14 62 20 90 5 29 16 84 24 122
9 39 20 94 26 124 5 30 12 58 15 63 3 5 10 33 14 61 5 29 13 70 18 92 9 36 21
90 54 250 5 28 16 75 24 106 8 31 14 103 14 165 0 149 -26 221 -107 295 -83
76 -163 91 -480 93 -250 1 -256 0 -289 -22z"/>
<path d="M10341 13695 c-18 -8 -43 -15 -55 -15 -37 0 -159 -79 -218 -142 -57
-61 -148 -224 -148 -265 0 -10 -4 -23 -9 -28 -4 -6 -16 -46 -25 -90 -10 -44
-22 -98 -28 -120 -5 -22 -13 -60 -18 -85 -4 -25 -15 -76 -24 -115 -17 -69 -39
-177 -56 -266 -4 -25 -13 -64 -18 -85 -6 -21 -18 -75 -27 -119 -9 -44 -20 -93
-25 -110 -5 -16 -11 -46 -15 -65 -3 -19 -10 -53 -15 -75 -5 -22 -16 -76 -25
-120 -26 -128 -46 -217 -58 -260 -5 -22 -14 -60 -18 -85 -11 -65 -36 -184 -55
-265 -9 -38 -20 -91 -24 -117 -5 -27 -11 -52 -14 -57 -3 -5 -10 -35 -16 -68
-5 -32 -16 -87 -24 -123 -27 -118 -48 -214 -56 -260 -5 -25 -13 -63 -18 -85
-6 -22 -18 -76 -27 -120 -10 -44 -24 -109 -32 -145 -7 -36 -18 -85 -23 -110
-5 -25 -14 -65 -21 -90 -6 -25 -14 -68 -19 -97 -4 -28 -11 -56 -14 -61 -3 -5
-10 -33 -15 -63 -10 -51 -24 -119 -57 -274 -8 -38 -19 -94 -25 -124 -5 -30
-12 -58 -15 -63 -3 -5 -10 -33 -15 -61 -11 -65 -33 -172 -53 -257 -9 -36 -21
-92 -26 -124 -6 -33 -13 -63 -16 -68 -3 -5 -10 -33 -14 -61 -5 -29 -13 -70
-18 -92 -6 -22 -18 -76 -27 -120 -9 -44 -20 -96 -24 -115 -29 -117 -41 -177
-41 -194 0 -11 -6 -42 -14 -70 -13 -47 -23 -92 -56 -246 -19 -96 -41 -193 -52
-240 -6 -25 -14 -63 -18 -85 -5 -22 -15 -74 -24 -115 -10 -41 -23 -106 -31
-145 -8 -38 -22 -101 -30 -140 -9 -38 -20 -90 -25 -115 -5 -25 -16 -79 -25
-120 -37 -177 -40 -268 -13 -360 40 -137 131 -207 297 -231 79 -11 106 -11
194 3 122 19 152 29 237 85 66 43 95 70 142 133 35 48 88 149 88 169 0 10 5
22 11 28 6 6 15 29 20 50 4 21 15 67 23 103 20 84 46 203 56 260 5 25 13 63
18 85 6 22 18 76 27 120 9 44 21 96 25 115 4 19 16 71 25 115 9 44 23 107 30
140 25 113 43 200 55 260 7 33 18 85 25 115 15 64 36 161 60 275 9 44 21 94
26 111 5 17 9 39 9 49 0 10 7 48 15 84 9 36 23 98 31 136 9 39 22 97 29 130 7
33 21 96 30 140 9 44 19 89 21 100 6 23 31 139 43 205 5 25 14 65 20 90 16 62
39 169 45 205 3 17 12 62 21 100 9 39 20 93 26 122 5 29 14 64 19 78 6 15 10
40 10 56 0 17 4 38 10 48 5 10 14 45 20 77 5 32 17 91 26 129 24 109 44 205
55 264 5 30 12 58 15 63 3 5 10 33 15 61 9 57 29 154 54 262 9 39 20 90 24
115 4 25 13 68 20 95 10 44 20 88 51 230 5 22 16 76 25 120 9 44 23 107 30
140 7 33 21 96 30 140 9 44 21 96 26 116 5 20 14 61 20 90 6 30 17 83 25 119
8 36 19 85 23 110 4 25 13 68 20 95 10 44 20 88 51 230 5 22 16 76 25 120 9
44 21 98 27 120 5 22 13 60 18 85 5 25 14 65 20 90 6 25 12 106 12 180 0 153
-13 198 -80 272 -33 37 -54 49 -142 86 -53 22 -295 27 -339 7z"/>
<path d="M26016 23972 c-3 -5 -10 -33 -15 -63 -6 -30 -17 -85 -25 -124 -8 -38
-18 -83 -21 -100 -3 -16 -13 -61 -21 -100 -8 -38 -22 -104 -30 -145 -9 -41
-20 -91 -24 -110 -5 -19 -16 -71 -25 -115 -17 -81 -36 -172 -60 -280 -7 -33
-21 -96 -30 -140 -17 -80 -37 -175 -55 -250 -5 -22 -11 -53 -14 -70 -2 -16
-14 -73 -26 -125 -11 -52 -25 -117 -30 -145 -5 -27 -13 -66 -18 -85 -5 -19
-15 -62 -22 -95 -12 -63 -33 -159 -55 -260 -7 -33 -21 -96 -30 -140 -9 -44
-20 -96 -25 -116 -16 -60 -12 -87 15 -105 22 -14 49 -15 212 -10 251 8 294 15
384 59 139 67 231 166 307 327 30 64 74 224 88 320 3 19 11 60 19 90 7 30 21
93 30 140 9 47 21 103 27 124 5 21 14 60 18 85 11 54 32 157 54 256 9 39 20
96 26 127 6 32 15 69 20 84 6 14 10 45 10 69 0 40 -12 60 -169 277 -93 128
-173 238 -178 243 -5 6 -31 39 -58 75 -27 36 -52 67 -55 70 -3 3 -28 34 -55
70 -27 36 -57 74 -67 84 -10 11 -28 35 -41 53 -21 31 -50 43 -61 25z"/>
<path d="M4182 9340 c-25 -21 -52 -88 -52 -131 0 -15 -5 -40 -11 -56 -6 -15
-15 -50 -20 -78 -9 -49 -28 -137 -48 -225 -6 -25 -16 -70 -22 -100 -6 -30 -17
-82 -24 -115 -25 -114 -44 -200 -60 -275 -9 -41 -20 -93 -25 -115 -5 -22 -16
-76 -25 -120 -9 -44 -21 -98 -27 -120 -5 -22 -14 -60 -19 -85 -4 -25 -15 -76
-23 -115 -9 -38 -18 -83 -21 -100 -11 -56 -37 -170 -51 -227 -8 -32 -14 -67
-14 -78 0 -12 -6 -42 -14 -68 -8 -26 -22 -85 -31 -132 -9 -47 -20 -101 -25
-120 -4 -19 -16 -71 -25 -115 -9 -44 -23 -104 -31 -133 -8 -29 -12 -58 -8 -65
7 -10 65 -88 92 -122 4 -5 47 -63 96 -128 48 -65 107 -144 133 -175 25 -31 58
-73 73 -92 51 -63 191 -234 213 -261 13 -15 54 -63 91 -108 73 -86 106 -103
106 -54 0 15 6 52 14 82 8 31 22 92 31 136 9 44 20 94 25 110 5 17 11 50 15
75 4 25 10 59 15 75 5 17 16 66 25 110 9 44 21 100 27 125 12 51 23 103 37
176 5 28 14 69 19 90 6 21 18 75 27 119 9 44 23 107 30 140 7 33 21 96 30 140
9 44 20 96 25 115 5 19 16 71 25 115 9 44 21 100 27 125 6 25 14 63 18 85 5
22 16 74 25 115 15 70 35 161 54 255 18 85 33 152 43 189 5 21 13 60 18 85 4
25 23 111 40 191 18 80 35 165 39 190 4 25 13 63 19 85 6 22 18 76 27 120 9
44 21 96 26 115 4 19 11 53 14 75 3 22 10 54 15 70 4 17 16 63 25 103 l17 74
-23 24 -22 24 -456 0 c-432 -1 -457 -2 -479 -20z"/>
</g>
</svg>
